<?xml version="1.0" encoding="utf-8"?>
<!-- Generator: Adobe Illustrator 22.0.1, SVG Export Plug-In . SVG Version: 6.00 Build 0)  -->
<svg version="1.1" xmlns="http://www.w3.org/2000/svg" xmlns:xlink="http://www.w3.org/1999/xlink" x="0px" y="0px"
	 viewBox="0 0 1366 768" enable-background="new 0 0 1366 768" xml:space="preserve">
<g id="content">
	<g id="slide-18">
		<g id="t-1_21_">
			<g>
				<path d="M63.9,251c-0.3-0.3-0.5-0.6-0.5-0.9c0-0.1,0-0.2,0.1-0.4c0.1-0.3,0.4-0.5,0.8-0.5l1-0.1c2.2,0.5,4.4,1.6,6.7,3.6
					c0.6,0.5,1.1,1,1.5,1.6c1.2,1.8,1.8,3.5,1.8,5.1c0,0.9-0.2,1.7-0.5,2.3c-0.1,0.3-0.2,0.6-0.4,0.9c-0.1,0.3-0.2,0.6-0.4,0.9
					c-0.3,0.6-0.6,1.1-1,1.6s-0.8,1-1.2,1.5c-0.4,0.5-0.8,1-1.2,1.4c-1,1.1-1.8,2-2.6,2.5c-0.3,0.3-0.5,0.6-0.8,0.9
					c-0.3,0.3-0.6,0.5-0.9,0.5c-0.2,0-0.5-0.1-0.9-0.2c-0.4-0.1-0.7-0.4-0.8-0.7c-0.1-1.1-0.1-2.2-0.1-3.4c0-0.6,0-1.4,0-2.3
					c0-0.9,0.1-2,0.1-3.2s0.1-2.3,0.1-3.2s0-1.7,0-2.3c0-0.8,0-1.6-0.1-2.4s-0.1-1.5-0.1-2.2L63.9,251z M67.8,266.8
					c2.9-2.9,4.3-5.6,4.3-8.2c0-0.2,0-0.4,0-0.5c0-0.2,0-0.4-0.1-0.5c-0.2-1.6-1.6-3-4.1-4.2c-0.1,1.4-0.1,2.9-0.1,4.4
					s-0.1,3-0.1,4.6c0,0.7,0,1.5,0,2.2S67.8,266.1,67.8,266.8z"/>
				<path d="M77,263.7c0-0.9,0.1-1.9,0.4-2.8c0.2-1,0.6-1.8,1.1-2.6c0.5-0.8,1.1-1.4,1.8-1.8c0.7-0.5,1.5-0.7,2.5-0.7
					c0.7,0,1.2,0.1,1.7,0.3c0.5,0.2,0.9,0.5,1.2,0.8c0.3,0.3,0.6,0.7,0.7,1.1c0.2,0.4,0.2,0.9,0.2,1.3c0,0.6-0.1,1.1-0.3,1.7
					c-0.2,0.5-0.5,1-0.9,1.5c-0.4,0.4-0.9,0.8-1.5,1c-0.6,0.3-1.3,0.4-2,0.4c-0.3,0-0.6,0-0.9,0c-0.3-0.1-0.5-0.1-0.9-0.2
					c0,0.1,0,0.2,0,0.3c0,0.1,0,0.2,0,0.2c0,0.9,0.2,1.7,0.5,2.2c0.3,0.5,0.6,0.9,0.9,1.2c0.3,0.3,0.6,0.4,1,0.5
					c0.3,0.1,0.5,0.1,0.6,0.1c0.8,0,1.4-0.2,2-0.5c0.5-0.4,1.1-0.7,1.7-1.2c0.1,0.1,0.3,0.1,0.4,0.2c0.2,0.1,0.3,0.2,0.4,0.4
					c0,0.2,0,0.3,0.1,0.4s0,0.2,0,0.4c0,0.4-0.1,0.7-0.3,0.9c-0.2,0.2-0.3,0.4-0.6,0.6c-0.7,0.6-1.3,0.9-1.8,1.1
					c-0.6,0.2-1.3,0.2-2.2,0.2c-0.4,0-0.9-0.1-1.5-0.3c-0.6-0.2-1.1-0.4-1.5-0.6c-0.6-0.5-1.1-0.9-1.4-1.4c-0.3-0.5-0.6-0.9-0.8-1.4
					c-0.2-0.5-0.3-1-0.4-1.6C77,264.9,77,264.3,77,263.7z M80.3,261.7c0.1,0,0.3,0,0.5,0.1c0.2,0,0.4,0,0.5,0c0.9,0,1.5-0.2,2-0.6
					s0.7-1,0.7-1.6c0-0.4-0.1-0.7-0.3-1c-0.2-0.3-0.5-0.5-0.8-0.5c-0.3,0-0.5,0-0.7,0.1c-0.2,0.1-0.4,0.2-0.6,0.4
					c-0.1,0.1-0.2,0.3-0.3,0.4s-0.2,0.3-0.4,0.5c-0.1,0.2-0.2,0.5-0.3,0.9C80.4,260.7,80.3,261.1,80.3,261.7z"/>
				<path d="M92,269.4c-0.3-0.5-0.6-1-0.8-1.6c-0.2-0.6-0.4-1.2-0.6-1.9c-0.2-0.6-0.3-1.3-0.4-1.9c-0.1-0.6-0.2-1.1-0.2-1.6
					c-0.1-0.8-0.3-1.7-0.6-2.5c-0.3-0.9-0.5-1.7-0.5-2.5c0-0.4,0.2-0.7,0.6-0.8s0.7-0.1,1.1-0.1c0.1,0,0.2,0,0.4,0.1
					c0.2,0,0.4,0.1,0.6,0.2s0.4,0.2,0.5,0.3c0.2,0.1,0.3,0.3,0.3,0.5c0,0.5,0,1.1,0.2,1.7c0.1,0.7,0.2,1.3,0.4,2
					c0.1,0.6,0.3,1.3,0.4,1.8s0.2,1,0.3,1.4c0.4-0.5,0.8-1.3,1.2-2.2c0.4-0.9,0.7-1.8,1.1-2.7c0.4-0.9,0.8-1.7,1.3-2.4
					c0.5-0.7,1-1.1,1.7-1.1c0.5,0,1,0,1.3,0.1c0.3,0.1,0.5,0.2,0.7,0.3s0.3,0.3,0.3,0.5s0.1,0.4,0.2,0.7c-0.4,0.5-0.8,0.9-1.1,1.4
					c-0.3,0.4-0.6,0.9-0.9,1.3c-0.3,0.5-0.5,0.9-0.8,1.4c-0.3,0.5-0.5,1.1-0.8,1.6c-0.1,0.1-0.1,0.3-0.2,0.4
					c-0.1,0.1-0.1,0.3-0.2,0.4c-0.4,0.5-0.6,1.1-0.9,1.7c-0.2,0.7-0.5,1.3-0.7,2c-0.3,0.6-0.6,1.2-1,1.7c-0.4,0.5-0.9,0.8-1.6,0.8
					L92,269.4z"/>
				<path d="M107.1,269.1c0,0.2-0.1,0.4-0.2,0.6c-0.1,0.2-0.3,0.4-0.6,0.7c-0.4,0-0.8,0-1.2-0.1s-0.7-0.2-0.9-0.5
					c-0.3-0.2-0.5-0.6-0.6-1c-0.2-0.4-0.2-1-0.2-1.7c0-0.4,0-0.9-0.1-1.3c-0.1-0.4-0.1-0.9-0.1-1.3c0-1.3-0.1-2.5-0.2-3.7
					c-0.2-1.2-0.2-2.4-0.2-3.7c0-0.5,0.2-0.9,0.6-1.2c0.3-0.1,0.5-0.1,0.7-0.2c0.2,0,0.5-0.1,0.8-0.1c0.4,0.1,0.6,0.2,0.8,0.4
					c0.2,0.2,0.3,0.4,0.5,0.6c0,0.3,0,0.5-0.1,0.8c0,0.3,0,0.5,0,0.8c0,1,0.1,2,0.2,3.1c0.1,1.1,0.2,2.1,0.3,3.1
					c0.1,1,0.2,1.9,0.4,2.7c0.1,0.8,0.2,1.4,0.2,1.9V269.1z M103.7,247.7c0.1-0.1,0.4-0.2,0.7-0.2c0.3,0,0.5,0,0.8,0.1
					c0.3,0.1,0.5,0.2,0.7,0.4c0.2,0.2,0.4,0.3,0.6,0.6c0.1,0.2,0.2,0.4,0.2,0.6c0,0.5-0.1,0.8-0.4,1c-0.2,0.2-0.6,0.2-1,0.2
					c-0.3,0-0.6,0-0.9-0.1c-0.3-0.1-0.6-0.2-0.8-0.3c-0.2-0.1-0.4-0.3-0.6-0.4c-0.1-0.1-0.2-0.3-0.2-0.4c0-0.3,0-0.6,0.1-0.8
					C103.1,248.2,103.3,248,103.7,247.7z"/>
				<path d="M117.4,268.1c0.3,0,0.6,0.1,0.7,0.3c0.2,0.2,0.3,0.5,0.3,0.8c0,0.3-0.1,0.5-0.2,0.6c-0.1,0.2-0.3,0.3-0.6,0.3
					c-0.2,0.1-0.5,0.1-0.8,0.2c-0.3,0-0.6,0.1-0.9,0.1c-0.4-0.1-0.8-0.2-1.2-0.3c-0.4-0.1-0.8-0.3-1.2-0.6c-0.6-0.5-1.2-1.1-1.8-1.7
					c-0.6-0.6-1.1-1.3-1.4-2.1c-0.1-0.2-0.2-0.4-0.3-0.6c-0.1-0.3-0.2-0.5-0.2-0.8s-0.1-0.5-0.1-0.8s0-0.4,0-0.6
					c0-0.5,0.1-1,0.2-1.6c0.1-0.6,0.3-1.1,0.5-1.6c0.2-0.5,0.5-1,0.8-1.5c0.3-0.4,0.7-0.8,1.2-1.1l1.4-0.6c0.4-0.1,0.7-0.2,1.1-0.3
					c0.4-0.1,0.7-0.2,1.1-0.2c0.6,0.1,1,0.2,1.2,0.3c0.2,0.2,0.4,0.5,0.6,1.1c0,0.1-0.1,0.3-0.2,0.5c-0.1,0.2-0.3,0.4-0.6,0.5
					c-0.3,0.1-0.6,0.2-0.8,0.2c-0.3,0-0.5,0.1-0.8,0.2c-0.4,0.2-0.8,0.4-1,0.6s-0.5,0.4-0.6,0.5c-0.2,0.2-0.3,0.4-0.4,0.5
					c-0.2,0.3-0.3,0.6-0.4,1c-0.1,0.4-0.1,0.7-0.1,1c0,0.5,0.1,1.1,0.2,1.6c0.2,0.5,0.4,1,0.6,1.5c0.3,0.5,0.5,0.9,0.9,1.2
					s0.6,0.6,0.9,0.7c0.4,0.4,0.9,0.6,1.4,0.6H117.4z"/>
				<path d="M120.5,263.7c0-0.9,0.1-1.9,0.4-2.8c0.2-1,0.6-1.8,1.1-2.6c0.5-0.8,1.1-1.4,1.8-1.8c0.7-0.5,1.5-0.7,2.5-0.7
					c0.7,0,1.2,0.1,1.7,0.3c0.5,0.2,0.9,0.5,1.2,0.8c0.3,0.3,0.6,0.7,0.7,1.1c0.2,0.4,0.2,0.9,0.2,1.3c0,0.6-0.1,1.1-0.3,1.7
					c-0.2,0.5-0.5,1-0.9,1.5c-0.4,0.4-0.9,0.8-1.5,1c-0.6,0.3-1.3,0.4-2,0.4c-0.3,0-0.6,0-0.9,0c-0.3-0.1-0.5-0.1-0.9-0.2
					c0,0.1,0,0.2,0,0.3c0,0.1,0,0.2,0,0.2c0,0.9,0.2,1.7,0.5,2.2c0.3,0.5,0.6,0.9,0.9,1.2c0.3,0.3,0.6,0.4,1,0.5
					c0.3,0.1,0.5,0.1,0.6,0.1c0.8,0,1.4-0.2,2-0.5c0.5-0.4,1.1-0.7,1.7-1.2c0.1,0.1,0.3,0.1,0.4,0.2c0.2,0.1,0.3,0.2,0.4,0.4
					c0,0.2,0,0.3,0.1,0.4s0,0.2,0,0.4c0,0.4-0.1,0.7-0.3,0.9c-0.2,0.2-0.3,0.4-0.6,0.6c-0.7,0.6-1.3,0.9-1.8,1.1
					c-0.6,0.2-1.3,0.2-2.2,0.2c-0.4,0-0.9-0.1-1.5-0.3c-0.6-0.2-1.1-0.4-1.5-0.6c-0.6-0.5-1.1-0.9-1.4-1.4c-0.3-0.5-0.6-0.9-0.8-1.4
					c-0.2-0.5-0.3-1-0.4-1.6C120.6,264.9,120.5,264.3,120.5,263.7z M123.8,261.7c0.1,0,0.3,0,0.5,0.1c0.2,0,0.4,0,0.5,0
					c0.9,0,1.5-0.2,2-0.6s0.7-1,0.7-1.6c0-0.4-0.1-0.7-0.3-1c-0.2-0.3-0.5-0.5-0.8-0.5c-0.3,0-0.5,0-0.7,0.1
					c-0.2,0.1-0.4,0.2-0.6,0.4c-0.1,0.1-0.2,0.3-0.3,0.4s-0.2,0.3-0.4,0.5c-0.1,0.2-0.2,0.5-0.3,0.9
					C123.9,260.7,123.9,261.1,123.8,261.7z"/>
			</g>
		</g>
		<g id="t-2_20_">
			<g>
				<g>
					<path d="M252.7,347.9c12-2.3,24.1-3,36.3-2.2c1.4,0.1,1.4-2.2,0-2.2c-12.4-0.8-24.7-0.1-36.9,2.2
						C250.7,346,251.3,348.2,252.7,347.9L252.7,347.9z"/>
				</g>
			</g>
			<g>
				<g>
					<path d="M259.4,395.5c13.8-0.1,27.2-2.3,40.3-6.7c1.4-0.5,0.8-2.6-0.6-2.2c-12.9,4.3-26.1,6.5-39.7,6.6
						C258,393.3,258,395.6,259.4,395.5L259.4,395.5z"/>
				</g>
			</g>
			<g>
				<g>
					<path d="M289.1,348.6c0.8-6.1,1.7-12.8,5.6-17.8c4-5.2,12.6-7.6,17.3-1.9c0.9,1.1,2.5-0.5,1.6-1.6c-4.3-5.2-11.8-4.9-17.1-1.4
						c-7.1,4.7-8.5,14.3-9.5,22C286.7,349.4,288.9,350,289.1,348.6L289.1,348.6z"/>
				</g>
			</g>
			<g>
				<g>
					<path d="M295.9,392.9c2,13.5,18.5,18.2,27.2,7.7c0.9-1.1-0.7-2.7-1.6-1.6c-7.8,9.2-21.8,5.1-23.5-6.8
						C297.8,390.9,295.6,391.5,295.9,392.9L295.9,392.9z"/>
				</g>
			</g>
			<g>
				<g>
					<path d="M312.7,326.9c3,18.3,5.9,36.6,8.9,54.9c0.7,4.6,1.5,9.1,2.2,13.7c0.3,2.1,0.1,6.5,1.9,8c1.7,1.4,3.8,0.1,3-2
						c-0.2-0.4-0.6-0.9-1.1-0.8c-0.1,0-0.3,0-0.4,0c-1.4,0.1-1.4,2.3,0,2.2c-0.4,0-5.6-35.2-6.2-38.5c-2.1-12.7-4.1-25.5-6.2-38.2
						C314.7,324.9,312.5,325.5,312.7,326.9L312.7,326.9z"/>
				</g>
			</g>
			<g>
				<g>
					<path d="M329.4,349.9c3.9,9.2,4.5,19,1.8,28.6c-0.4,1.4,1.8,2,2.2,0.6c2.9-10.2,2.1-20.6-2-30.3
						C330.8,347.4,328.9,348.5,329.4,349.9L329.4,349.9z"/>
				</g>
			</g>
			<g>
				<g>
					<path d="M328.5,339c13.3,11.3,17.8,30.7,10.6,46.6c-0.6,1.3,1.3,2.5,1.9,1.1c7.6-16.8,3.1-37.4-11-49.3
						C329,336.4,327.4,338,328.5,339L328.5,339z"/>
				</g>
			</g>
			<g>
				<g>
					<path d="M333.9,329.6c11,1.1,16.2,12.9,18.4,22.4c1.4,6,8.6,43.6-5.7,39.2c-1.4-0.4-2,1.7-0.6,2.2c17.1,5.3,10.9-29.2,9.6-36.5
						c-2.2-12.1-7.4-28.1-21.7-29.5C332.5,327.2,332.5,329.5,333.9,329.6L333.9,329.6z"/>
				</g>
			</g>
			<g>
				<g>
					<path d="M254.8,344.1c-0.9,16.3,1,32.5,5.7,48.1c0.3,1.2,2.3,1,2.2-0.3c-0.2-1.5-0.3-3-0.5-4.5c-0.2-1.4-2.4-1.4-2.2,0
						c0.2,1.5,0.3,3,0.5,4.5c0.7-0.1,1.5-0.2,2.2-0.3c-4.7-15.5-6.6-31.4-5.7-47.5C257.2,342.6,254.9,342.6,254.8,344.1L254.8,344.1
						z"/>
				</g>
			</g>
			<g>
				<g>
					<path d="M94.2,278.9c2.8,25.4,16.7,48.6,37.3,63.6c11.4,8.3,24.3,13.2,38.2,15.6c17.4,3,35.2,4.5,52.7,6.6c1.9,0.2,1.9-2.8,0-3
						c-16.7-2-33.5-3.5-50.1-6.2c-13.3-2.1-25.8-6.4-37-14c-20.9-14.2-35.5-37.4-38.2-62.7C97,277,94,277,94.2,278.9L94.2,278.9z"/>
				</g>
			</g>
			<g>
				<g>
					<path d="M214.9,351.1c8.3,6.7,17.9,11.1,28.5,12.7c-0.2-0.8-0.4-1.7-0.7-2.5c-8.4,7.5-16.8,14.9-25.2,22.4
						c-1.4,1.3,0.7,3.4,2.1,2.1c8.4-7.5,16.8-14.9,25.2-22.4c0.8-0.7,0.4-2.3-0.7-2.5c-10-1.5-19.3-5.5-27.2-11.9
						C215.5,347.8,213.4,349.9,214.9,351.1L214.9,351.1z"/>
				</g>
			</g>
		</g>
		<g id="t-3_21_">
			<g>
				<path fill="#FFFFFF" d="M576,319.5c-0.6-2.2-3.5-2.9-5.7-2.4c-3.5,0.8-6.1,3.9-7.5,7.2c-1.3,3.2-1.4,7.3,1.1,9.6
					c1.8,1.7,4.4,2.1,6.8,2.6c2.4,0.5,5,1.5,6,3.8c0.2,0.5,0.3,1,0.1,1.5c-0.2,0.5-0.7,0.7-1.2,1c-3.7,1.8-7.7,3.3-11.7,4.3
					c1.1,0.1,2.2,0.2,3.3,0.3"/>
				<g>
					<path fill="#FF9900" d="M576.6,319.1c-4.3-8.5-14.3,2.1-15.3,7.6c-0.7,4.1,0.8,7.7,4.6,9.4c2.3,1,5.9,0.7,7.9,2.4
						c4.6,3.8-0.9,4.9-3.3,5.8c-2.2,0.9-4.5,1.5-6.8,2.1c-0.9,0.2-0.6,1.4,0.2,1.5c1.1,0.1,2.2,0.2,3.3,0.3c1,0.1,1-1.4,0-1.5
						c-1.1-0.1-2.2-0.2-3.3-0.3c0.1,0.5,0.1,1,0.2,1.5c3.1-0.8,17-3.2,12.5-9c-2.1-2.7-5.7-2.8-8.7-3.7c-5.5-1.7-6.4-7.2-4-11.7
						c1.5-2.9,8.2-9.6,11.3-3.6C575.8,320.8,577.1,320,576.6,319.1L576.6,319.1z"/>
				</g>
			</g>
			<g>
				<path fill="#FFFFFF" d="M565.8,349.7c2.6-0.3,5.2-0.4,7.8,0.3s4.9,2.3,5.8,4.7c1.5,3.8-0.8,8.1-3.3,11.3c-0.8,1-1.7,2.1-1.9,3.4
					c-0.3,2.1,1.5,4.1,3.5,4.8c2,0.7,4.2,0.5,6.4,0.2"/>
				<g>
					<path fill="#FF9900" d="M565.8,350.4c7-0.7,16.5,1.7,12.2,11.2c-1.2,2.6-4.3,4.8-4.6,7.7c-0.6,5.9,6.6,6.3,10.6,5.9
						c0.9-0.1,1-1.6,0-1.5c-1.1,0.1-2.1,0.2-3.2,0.3c-5.2-2.5-6.6-5.1-4.1-7.6c0.8-1.9,2.5-3.4,3.2-5.4c0.8-2.1,1-4.4,0.2-6.5
						c-2.3-5.7-9.1-6-14.3-5.5C564.8,349,564.8,350.5,565.8,350.4L565.8,350.4z"/>
				</g>
			</g>
			<g>
				<path fill="#FFFFFF" d="M593.6,348.9c1.4-2.6,2.4-5.5,3-8.4c0.2-0.9,0.8-2.1,1.6-1.8c0.4,0.1,0.6,0.5,0.8,0.9
					c1.9,4.1,2.1,9.3,5.8,11.9c0.1-3.7,0.4-7.5,0.7-11.2c1.8,2.3,3.6,4.6,5.5,6.9c0.7,0.9,1.4,1.8,2.4,2.3c1,0.5,2.4,0.5,3.1-0.3
					c0.6-0.6,0.7-1.6,1.2-2.4c1.1-1.8,3.7-2,5.7-1.3s3.9,1.9,6,2.1"/>
				<g>
					<path fill="#FF9900" d="M594.2,349.3c0.8-1.7,1.6-3.3,2.1-5.1c0.1-0.4,0.7-3.4,0.9-3.4c1.2-0.4,2.3,3,2.6,3.6
						c0.9,3,1.9,5.6,4.4,7.7c0.5,0.4,1.3,0.1,1.3-0.5c0.1-3.7,0.4-7.5,0.7-11.2c-0.4,0.2-0.9,0.4-1.3,0.5c2.1,2.6,5.6,9.5,9.5,9.7
						c1.3,0.1,1.7-0.5,2.7-1c0.2-0.4,0.4-0.8,0.7-1.2c2.3-2.4,4.5-3,6.8-1.7c1.6,0.3,3,1.2,4.6,1.5c0.9,0.2,1.3-1.3,0.4-1.4
						c-3.4-0.7-8-4.1-11.5-1.5c-0.4,0.3-0.6,0.8-1,1.1c-0.3,0.4-0.5,0.8-0.6,1.3c-1.4,0-2.9-0.1-4.3-0.1c-2.2-1.1-4.7-5.8-6.2-7.8
						c-0.4-0.6-1.2,0-1.3,0.5c-0.3,3.7-0.6,7.5-0.7,11.2c0.4-0.2,0.9-0.4,1.3-0.5c-3-2.6-3.6-6.2-4.8-9.7c-0.3-0.9-0.9-3.1-2.1-3.3
						c-0.6-0.1-1.2,0.1-1.6,0.5c-0.6,0.5-0.7,1.2-0.9,1.8c-1.1,2.7-1.6,5.5-2.9,8.2C592.5,349.4,593.8,350.2,594.2,349.3
						L594.2,349.3z"/>
				</g>
			</g>
			<g>
				<path fill="#FFFFFF" d="M646.9,333c-0.6,0-1.1-0.1-1.7-0.1c0.1-0.8,1.5-0.9,1.7-0.1c0.2,0.8-1.1,1.4-1.6,0.7"/>
				<g>
					<path fill="#FF9900" d="M646.9,332.3c-0.6,0-1.1-0.1-1.7-0.1c0.2,0.3,0.5,0.6,0.7,0.9c0-0.1,0-0.1,0.1-0.1c0,0,0.2,0,0.2,0
						c0.4-0.1,0,0.1,0,0c0,0,0,0,0,0c0-0.1,0-0.1,0,0c0,0,0.1,0-0.1,0.1c-0.2,0.1-0.1,0.1-0.2,0c-0.3-0.3-0.8-0.3-1.1,0
						c-0.3,0.3-0.2,0.7,0,1.1c1,1.3,3.3,0,2.8-1.5c-0.5-1.4-2.9-1.3-3.2,0.2c-0.1,0.5,0.2,0.9,0.7,0.9c0.6,0,1.1,0.1,1.7,0.1
						C647.8,333.8,647.8,332.3,646.9,332.3L646.9,332.3z"/>
				</g>
			</g>
			<g>
				<path fill="#FFFFFF" d="M652.3,361.7c-1.1,0.7-2.7-0.5-2.4-1.7c0,0.3,0,0.6,0,0.9"/>
				<g>
					<path fill="#FF9900" d="M651.9,361.1c-0.5,0.3-1.4-0.2-1.3-0.9c-0.5-0.1-1-0.1-1.5-0.2c0,0.3,0,0.6,0,0.9c0,1,1.5,1,1.5,0
						c0-0.3,0-0.6,0-0.9c0-0.8-1.3-1.1-1.5-0.2c-0.4,1.9,1.8,3.6,3.5,2.5C653.5,361.9,652.7,360.6,651.9,361.1L651.9,361.1z"/>
				</g>
			</g>
			<g>
				<path fill="#FFFFFF" d="M670.2,345.4c1.8-2.1,3.7-4.1,5.5-6.2c1,1.9,2.4,4,4.6,4c2.6-0.1,3.8-3.3,6-4.8c0.3-0.2,0.7-0.4,1.2-0.5
					c1.3-0.1,2.1,1.3,2.4,2.5c0.3,1.2,0.5,2.6,1.6,3.3c1.1,0.7,2.7,0.2,3.6-0.9c0.8-1.1,1.1-2.4,1.4-3.8c1.2,1.4,2.4,2.8,3.7,4.1
					c0.3,0.3,0.6,0.7,1.1,0.7c0.5,0.1,0.9-0.3,1.3-0.6c2.2-1.8,4.5-3.7,6.7-5.5c1.1,1.9,3.7,2.6,5.6,1.7"/>
				<g>
					<path fill="#FF9900" d="M670.7,345.9c0.9-1,3.6-5.3,5-5.2c0.4,0,2.3,2.7,3.1,2.9c3.2,1.1,4.1-1.6,6.3-3.1
						c4.6-3.2,3.4,4.1,7.3,4.3c3.1,0.2,4.1-3.2,4.6-5.5c-0.4,0.1-0.8,0.2-1.3,0.3c2.7,3.1,4,6.4,7.7,3.7c2.4-1.7,3.7-4.1,6.5-3.5
						c2,0.4,2.6,1.1,4.8,0.4c0.9-0.3,0.5-1.7-0.4-1.4c-1.6-0.5-3.2-1-4.9-1.5c-0.3-0.3-0.8-0.2-1.1,0c-1.4,1.2-3,3-4.7,3.8
						c-3.4,1.8-4.9-0.4-7-2.6c-0.4-0.4-1.1-0.2-1.3,0.3c0.1,1.5-0.7,2.2-2.5,2c-1.7,1.3-2.6,1.1-2.5-0.6c-0.3-0.3-0.3-1-0.5-1.4
						c-0.6-0.9-1.2-1.6-2.5-1.7c-4.2-0.2-6.1,10.4-11.2,1.6c-0.2-0.4-0.9-0.5-1.2-0.2c-1.8,2.1-3.7,4.1-5.5,6.2
						C669,345.6,670.1,346.6,670.7,345.9L670.7,345.9z"/>
				</g>
			</g>
			<g>
				<path fill="#FFFFFF" d="M729.3,355.5c-1.4,3.5-2.7,7-4.1,10.5c-0.4,0.9-0.7,1.9-1.5,2.5c-0.7,0.6-1.9,0.8-2.7,0.2"/>
				<g>
					<path fill="#FF9900" d="M728.6,355.3c-0.8,2.1-1.6,4.1-2.4,6.2c-0.5,1.4-2.2,7.9-4.7,6.5c-0.8-0.5-1.6,0.8-0.8,1.3
						c2.2,1.2,3.9-0.3,4.9-2.3c1.7-3.6,3-7.6,4.4-11.4C730.4,354.8,728.9,354.4,728.6,355.3L728.6,355.3z"/>
				</g>
			</g>
			<g>
				<path fill="#FFFFFF" d="M606.6,408.2c1.4-3.4,2.9-6.8,4.3-10.2c1.8,1.9,1.6,5.6,4,6.5c1.4,0.5,3-0.3,3.8-1.5
					c0.9-1.2,1.1-2.7,1.4-4.2c-0.1,2.4,1.3,4.8,3.4,5.9c0.3,0.2,0.7,0.3,1.1,0.2c0.6-0.1,0.9-0.7,1.2-1.3c0.6-1.4,1.2-2.8,1.9-4.2
					c0.1-0.3,0.3-0.6,0.6-0.8c0.4-0.2,0.9,0.1,1.3,0.4c1.7,1.2,3.3,2.3,5,3.5"/>
				<g>
					<path fill="#FF9900" d="M607.3,408.5c1.4-3.4,2.9-6.8,4.3-10.2c-0.4,0-0.9,0-1.3,0c1.7,2.2,1.9,7.1,5.6,7c3.4,0,4.5-3.7,5-6.4
						c-0.5-0.1-1-0.1-1.5-0.2c0.2,2.2,2.1,7.8,5.4,6.9c1.3-0.4,1.7-1.9,2.2-3c0.6-1.3,0.6-2.8,2.1-2.9c0.9-0.1,4.2,2.9,5,3.5
						c0.8,0.6,1.5-0.7,0.8-1.3c-1.4-1-4.8-4.6-6.8-4c-0.5,0.2-0.5,0.4-0.8,0.7c-0.6,0.6-0.9,1.7-1.2,2.5c-0.2,0.5-0.4,0.9-0.6,1.4
						c-0.9,2.5-2.4,1.3-4.6-3.8c-0.1-0.8-1.3-1.1-1.5-0.2c0.1,1.9-1,2.5-3.3,1.8c-2,1.2-3.2,1-3.4-0.7c-0.4-0.4-0.8-1.6-1.2-2.1
						c-0.3-0.4-1.1-0.6-1.3,0c-1.4,3.4-2.9,6.8-4.3,10.2C605.6,408.7,606.9,409.4,607.3,408.5L607.3,408.5z"/>
				</g>
			</g>
			<g>
				<g>
					<path fill="#FF9900" d="M654.6,390.2c0,0.2,0,0.3,0,0.5c0,1,1.5,1,1.5,0c0-0.2,0-0.3,0-0.5
						C656.1,389.3,654.6,389.3,654.6,390.2L654.6,390.2z"/>
				</g>
			</g>
			<g>
				<path fill="#FFFFFF" d="M659.3,412.6c0.3-0.6,0.7-1.2,1-1.8c-0.3,1.1-1,2.2-2.1,2.7c-0.2-0.7,0.1-1.4,0.6-1.8"/>
				<g>
					<path fill="#FF9900" d="M660,413c0.3-0.6,0.7-1.2,1-1.8c-0.5-0.2-0.9-0.4-1.4-0.6c-0.3,1-0.9,1.8-1.7,2.3
						c0.4,0.1,0.7,0.3,1.1,0.4c-0.1-0.3,0-0.7,0.3-1c0.8-0.6,0-1.9-0.8-1.3c-0.9,0.6-1.3,1.6-1,2.7c0.1,0.5,0.7,0.7,1.1,0.4
						c1.2-0.7,2.1-1.8,2.4-3.2c0.2-0.8-0.9-1.3-1.4-0.6c-0.3,0.6-0.7,1.2-1,1.8C658.2,413.1,659.5,413.8,660,413L660,413z"/>
				</g>
			</g>
			<g>
				<path fill="#FFFFFF" d="M683,401.4c1.7-2.3,3.4-4.5,5.1-6.8c0.4-0.5,0.9-1.1,1.5-1c0.9,0.1,1.2,1.3,2,1.9
					c1.1,0.9,2.8-0.1,3.9-0.9c0.4-0.3,0.9-0.6,1.4-0.5c0.4,0.1,0.7,0.5,1,0.8c1.4,1.3,3.8,0.5,5.3-0.7c1.6-1.1,3.3-2.5,5.2-2.1
					c1.4,0.3,2.8,1.6,4.1,1"/>
				<g>
					<path fill="#FF9900" d="M683.6,401.8c1.2-1.6,2.5-4.2,4.1-5.4c6.3-4.9,0.6-0.1,3.4-0.2c0.6,0,1.2,0.4,1.8,0.4
						c1.5,0,2.1-1.3,3.6-1.3c1.8,0.1,2.6,1.3,4.7,0.7c1.4-0.4,2.3-1.5,3.6-2c3.8-1.7,4.7,0,7.7-0.2c1-0.1,1-1.6,0-1.5
						c-2,0.1-3.6-1.3-5.6-1c-1.3,0.2-2.4,1.1-3.5,1.8c-0.8,0.6-1.7,1.1-2.6,1.5c-1.1-0.3-2.3-0.7-3.4-1c-0.1,0-0.2-0.2-0.3-0.2
						c-0.6,0-1.1,0.3-1.7,0.3c-1.7,0.1-3.6-0.5-5.1-0.6c-0.9-0.1-0.7-0.3-1.8,0c-2.3,0.8-4.8,6-6.2,7.8
						C681.7,401.8,683,402.6,683.6,401.8L683.6,401.8z"/>
				</g>
			</g>
			<g>
				<path fill="#FFFFFF" d="M733,376.8c1.4-2.6,4.8-3.1,7.8-3.2c2.5-0.1,5.4,0.2,6.8,2.2c2,2.7,0.1,6.6-2.4,8.9
					c-2.5,2.3-5.6,4.3-6.5,7.5c-0.2,0.8-0.3,1.8,0.1,2.5c0.9,1.6,3.2,1.5,5,1.1c4.3-0.8,8.6-1.6,12.9-2.4c-3.5,0-7.2,0.1-10,2.2
					c-0.8,0.6-1.5,1.3-1.7,2.2c-0.4,1.7,1,3.3,2.4,4.2c1.5,0.9,3.2,1.5,4.3,2.7c1.4,1.5,1.7,3.8,1.1,5.8c-0.6,2-2,3.6-3.7,4.8
					c-4,2.9-9.6,3.3-14,1"/>
				<g>
					<path fill="#FF9900" d="M733.6,377.2c1.5-2.1,8-4.2,10.7-2.5c0.7,2.5,1.4,4.9,2.1,7.4c-0.6,0.7-1.2,1.4-1.8,2.1
						c-0.8,0.9-1.9,1.6-2.8,2.4c-1.8,1.7-4.6,4.3-4.1,7.1c0.3,2.1,1.7,2.9,3.7,3.1c4.8,0.4,10.6-1.7,15.3-2.6
						c0.8-0.2,0.6-1.5-0.2-1.5c-3.6,0.1-13.6,0.6-12.4,6.5c0.5,2.7,3.2,3.2,5,4.6c5.2,4.1,2.5,9.8-3,12.1c-3.5,1.5-7.2,1.2-10.7-0.3
						c-0.9-0.4-1.6,0.9-0.8,1.3c6.1,2.7,14.9,1.8,18.2-4.8c1.3-2.5,1.2-5.6-0.7-7.9c-1.1-1.2-3-1.5-4-2.6c-6.1-7.1,5.5-7.4,8.3-7.5
						c-0.1-0.5-0.1-1-0.2-1.5c-3.6,0.7-7.4,1.8-11,2c-4.1,0.3-7.7-1.2-4-5.7c0.8-0.9,1.8-1.7,2.7-2.5c2.6-2.3,6.1-5.9,4.9-9.8
						c-2.1-6.3-13.4-4.8-16.6-0.4C731.8,377.2,733.1,378,733.6,377.2L733.6,377.2z"/>
				</g>
			</g>
			<g>
				<g>
					<path d="M387.6,358.6c34.7-20.7,77.3-26.1,116-14.6c1.4,0.4,2-1.8,0.6-2.2c-39.3-11.6-82.6-6.2-117.8,14.8
						C385.3,357.4,386.4,359.3,387.6,358.6L387.6,358.6z"/>
				</g>
			</g>
			<g>
				<g>
					<path d="M490.5,326.6c12.4-0.9,25.3,2.7,34.8,11c1.6,1.4,2.4,2.5,3.3,4.6c1.4,3.1,0.6,4.9-1.1,7.6c-1.8,2.8-4.3,5.3-6.5,7.8
						c-4.3,4.8-8.9,9.3-13.7,13.6c-1.1,1,0.5,2.6,1.6,1.6c6.5-5.9,12.7-12.1,18.2-19c3.6-4.4,6.6-9,3-14.3
						c-3.8-5.6-11.3-9.5-17.4-11.9c-7.1-2.8-14.6-3.8-22.2-3.2C489.1,324.5,489.1,326.7,490.5,326.6L490.5,326.6z"/>
				</g>
			</g>
			<g>
				<g>
					<path fill="#FF9900" d="M675.9,418.4c0,0.3,0,0.5,0,0.8c0,1,1.5,1,1.5,0c0-0.3,0-0.5,0-0.8
						C677.4,417.5,675.9,417.5,675.9,418.4L675.9,418.4z"/>
				</g>
			</g>
			<g>
				<path d="M593.6,304.2c-0.1-1.4-0.1-2.9-0.1-4.4c0-2.7,0.2-6,0.5-10.1l0.8-10.2c0-0.6,0.5-0.8,1.5-0.8c0.2,0,0.5,0.1,0.8,0.2
					c0.4,0.2,0.7,0.4,1.1,0.7c0.4,0.8,0.9,1.8,1.4,3s1.1,2.7,1.6,4.5c0.6,1.7,1.1,3.3,1.7,4.8c0.5,1.5,1.1,2.8,1.5,4l1.5-16.5
					c0.1-0.5,0.4-0.8,1.1-0.8c0.2,0,0.5,0,0.8,0.1l0.7,0.2c0.3,0.1,0.4,0.3,0.5,0.5l-1,10.2c-0.2,2.1-0.4,3.9-0.5,5.6
					s-0.2,3.2-0.2,4.6c0,0.4,0,0.9,0,1.3s0,0.9,0.1,1.4c0,0.4-0.2,0.7-0.5,1s-0.7,0.4-1,0.4c-0.8,0-1.4-0.5-2-1.6
					c-0.4-0.8-0.8-1.8-1.3-2.9c-0.5-1.2-1-2.4-1.5-3.8c-0.5-1.4-1.1-2.9-1.7-4.5c-0.6-1.6-1.2-3.2-1.8-4.9c-0.1-0.2-0.1-0.2-0.2-0.2
					c-0.2,0-0.3,0.2-0.3,0.5c-0.1,0.9-0.2,1.9-0.2,2.9c-0.1,1.1-0.1,2.1-0.1,3.2c0,1.1,0,2.2,0,3.3c0,1.1,0,2.2,0,3.2
					c0,1,0,1.9,0,2.9c0,1,0.1,2,0.1,3v0.2c0,0.7-0.2,1.1-0.6,1.4c-0.2,0.2-0.4,0.3-0.6,0.3c-0.2,0-0.4-0.1-0.7-0.2l-0.7-0.3
					c-0.3-0.1-0.5-0.4-0.6-0.9L593.6,304.2z"/>
				<path d="M612,302.5v-0.8c0-1.1,0-2.3,0.1-3.7c0.1-1.4,0.2-3,0.3-4.7c0.4-4.2,0.6-7.3,0.6-9.2c0-0.7,0-1.3,0-1.9
					c0-0.6-0.1-1.2-0.1-1.8c0.3-0.3,0.7-0.5,1.3-0.5c1,0,1.5,0.4,1.7,1.1c0,0.3,0,0.5,0,0.8c0,0.3,0,0.6,0,0.9c0,1,0,2.1-0.1,3.4
					s-0.1,2.7-0.2,4.3c-0.1,1.7-0.2,3.3-0.2,4.7c0,1.4-0.1,2.6-0.1,3.6v1.1c0.7-0.3,1.6-0.8,2.8-1.6c0.6-0.4,1.2-0.8,1.6-1.1
					c0.4-0.3,0.8-0.5,1.1-0.6c0.1,0,0.3,0,0.7-0.1c0.3-0.1,0.6-0.1,0.7-0.1c0.5,0,0.9,0.2,1.1,0.6c0.2,0.3,0.2,0.6,0.2,0.8
					c0,0.3-0.1,0.5-0.2,0.6l-4.4,3.2c-0.9,0.6-1.7,1.1-2.4,1.6s-1.5,0.8-2.1,1.1c-0.2,0.1-0.3,0.1-0.5,0.1c-0.4,0-0.7-0.2-1-0.7
					L612,302.5z"/>
				<path d="M627.5,305.8c-0.5-0.3-0.7-0.5-0.7-0.8c-0.1-0.8-0.2-1.7-0.3-2.6c-0.1-0.9-0.1-1.9-0.1-2.9c0-1.3,0.1-3.3,0.2-6
					s0.2-4.7,0.2-6c0-2-0.1-3.8-0.3-5.4c0,0,0,0-0.1,0c0,0,0,0-0.1,0c-0.2,0-0.3-0.1-0.5-0.4c-0.2-0.3-0.4-0.5-0.5-0.6
					c0.1-0.8,0.3-1.2,0.6-1.2c0.3-0.1,0.5-0.1,0.7-0.1c0.2,0,0.4,0,0.7,0c0.3,0,0.6,0.1,0.9,0.1c3.3,0.5,5.8,2,7.4,4.3
					c0.5,0.8,0.8,1.6,0.8,2.6c0,0.9-0.2,1.8-0.6,2.6c-1,2.1-1.8,3.5-2.5,4.1l-1.7,1.7c-0.7,0.6-1.5,0.9-2.2,1.1
					c-0.1,0.4-0.2,1-0.2,1.8c0,0.5,0,1.2,0.1,2.2c0.1,1,0.1,1.7,0.1,2.1c0,1.7-0.4,3-1.2,3.9l-0.3-0.2L627.5,305.8z M633.6,286.2
					c0-0.9-0.4-1.6-1.3-2.1c-0.2-0.1-0.4-0.2-0.7-0.3c-0.2-0.1-0.5-0.2-0.9-0.3c-0.3-0.1-0.7-0.3-1.2-0.5c0.1,1.7,0.2,3.3,0.2,4.6
					c0,1.3,0.1,2.5,0.1,3.4c0,0.4,0,0.7,0,0.9c0,0.3,0,0.5,0,0.8c2.3-2.1,3.5-4.2,3.8-6.3V286.2z"/>
				<path d="M657.2,276.6c0.2-0.3,0.5-0.4,0.8-0.4c1.2,0,1.9,0.5,2.1,1.6v0.2c0,0.4-0.1,0.7-0.3,0.9c-2.4,3.1-4.6,5.9-6.5,8.6
					c-2,2.7-3.7,5.1-5.3,7.4c-0.5,0.7-1.1,1.7-1.8,2.8c-0.7,1.1-1.5,2.4-2.5,3.8c-0.3,0.6-0.7,1.3-1.2,2.1s-1.1,1.8-1.7,2.9
					c-0.2,0.2-0.4,0.3-0.6,0.3c-0.2,0-0.4-0.1-0.7-0.2s-0.5-0.2-0.6-0.2c-0.3,0-0.6-0.1-0.8-0.4c-0.2-0.2-0.3-0.4-0.3-0.7
					c0.1-0.8,0.4-1.7,1-2.7c0.3-0.4,0.6-0.9,0.8-1.3c0.3-0.4,0.5-0.8,0.8-1.3c1-1.7,2.1-3.5,3.5-5.5c1.4-2,2.9-4.2,4.7-6.6
					L657.2,276.6z"/>
				<path d="M661.4,304.2c-0.1-1.4-0.1-2.9-0.1-4.4c0-2.7,0.2-6,0.5-10.1l0.8-10.2c0-0.6,0.5-0.8,1.5-0.8c0.2,0,0.5,0.1,0.8,0.2
					c0.4,0.2,0.7,0.4,1.1,0.7c0.4,0.8,0.9,1.8,1.4,3s1.1,2.7,1.6,4.5c0.6,1.7,1.1,3.3,1.7,4.8c0.5,1.5,1.1,2.8,1.5,4l1.5-16.5
					c0.1-0.5,0.4-0.8,1.1-0.8c0.2,0,0.5,0,0.8,0.1l0.7,0.2c0.3,0.1,0.4,0.3,0.5,0.5l-1,10.2c-0.2,2.1-0.4,3.9-0.5,5.6
					s-0.2,3.2-0.2,4.6c0,0.4,0,0.9,0,1.3s0,0.9,0.1,1.4c0,0.4-0.2,0.7-0.5,1s-0.7,0.4-1,0.4c-0.8,0-1.4-0.5-2-1.6
					c-0.4-0.8-0.8-1.8-1.3-2.9c-0.5-1.2-1-2.4-1.5-3.8c-0.5-1.4-1.1-2.9-1.7-4.5c-0.6-1.6-1.2-3.2-1.8-4.9c-0.1-0.2-0.1-0.2-0.2-0.2
					c-0.2,0-0.3,0.2-0.3,0.5c-0.1,0.9-0.2,1.9-0.2,2.9c-0.1,1.1-0.1,2.1-0.1,3.2c0,1.1,0,2.2,0,3.3c0,1.1,0,2.2,0,3.2
					c0,1,0,1.9,0,2.9c0,1,0.1,2,0.1,3v0.2c0,0.7-0.2,1.1-0.6,1.4c-0.2,0.2-0.4,0.3-0.6,0.3c-0.2,0-0.4-0.1-0.7-0.2l-0.7-0.3
					c-0.3-0.1-0.5-0.4-0.6-0.9L661.4,304.2z"/>
				<path d="M679.9,302.5v-0.8c0-1.1,0-2.3,0.1-3.7c0.1-1.4,0.2-3,0.3-4.7c0.4-4.2,0.6-7.3,0.6-9.2c0-0.7,0-1.3,0-1.9
					c0-0.6-0.1-1.2-0.1-1.8c0.3-0.3,0.7-0.5,1.3-0.5c1,0,1.5,0.4,1.7,1.1c0,0.3,0,0.5,0,0.8c0,0.3,0,0.6,0,0.9c0,1,0,2.1-0.1,3.4
					s-0.1,2.7-0.2,4.3c-0.1,1.7-0.2,3.3-0.2,4.7c0,1.4-0.1,2.6-0.1,3.6v1.1c0.7-0.3,1.6-0.8,2.8-1.6c0.6-0.4,1.2-0.8,1.6-1.1
					c0.4-0.3,0.8-0.5,1.1-0.6c0.1,0,0.3,0,0.7-0.1c0.3-0.1,0.6-0.1,0.7-0.1c0.5,0,0.9,0.2,1.1,0.6c0.2,0.3,0.2,0.6,0.2,0.8
					c0,0.3-0.1,0.5-0.2,0.6l-4.4,3.2c-0.9,0.6-1.7,1.1-2.4,1.6s-1.5,0.8-2.1,1.1c-0.2,0.1-0.3,0.1-0.5,0.1c-0.4,0-0.7-0.2-1-0.7
					L679.9,302.5z"/>
				<path d="M697.4,284.5c0,1.2,0,2.7-0.1,4.6c-0.1,1.4-0.1,2.5-0.1,3.5c0,1-0.1,1.7-0.1,2.3c0,1.3,0,2.4,0.1,3.5
					c0,0.5,0.3,1.5,0.7,3c1.1-1.2,1.9-2.8,2.5-4.8c0.1-0.3,0.3-0.9,0.5-1.8c0.2-0.9,0.5-2.1,0.8-3.6c0.3-1.1,0.5-2.1,0.8-3
					c0.3-0.9,0.6-1.6,0.8-2.2c0.2-0.4,0.4-1,0.5-2c0.1-1,0.3-1.7,0.5-2.1c0.3-0.6,0.7-0.9,1.4-0.9c0.9,0,1.5,0.3,1.9,0.8
					c-0.1,0.9-0.3,1.9-0.5,3.1c-0.2,1.2-0.6,2.5-1,4c-0.6,2-1,3.6-1.3,4.8c-0.3,1.2-0.5,2-0.6,2.4c-0.6,2.6-1.6,4.9-3.2,7
					c-0.9,1.3-2.1,2-3.4,2c-1.1,0-2-0.7-2.5-2.2c-1-2.5-1.4-5.3-1.4-8.4c0-0.9,0.1-2,0.3-3.2c0.2-1.2,0.3-2.5,0.3-3.9
					c0,0,0-0.8,0-2.4c0-1.6,0.6-2.4,1.8-2.4c0.2,0,0.5,0.1,0.7,0.2c0.3,0.1,0.5,0.3,0.8,0.4c0,0,0,0,0.1,0c0,0,0,0,0.1,0V284.5z"/>
			</g>
		</g>
		<g id="t-4_16_">
			<g>
				<g>
					<path d="M768,370.1c10.8-10.1,25.1-14.5,39.3-17.7c16.2-3.6,32.6-6.3,49.1-7.9c32.6-3.3,65.4-2.7,97.8,1.5c1.9,0.2,1.9-2.8,0-3
						c-34.3-4.5-69.1-4.8-103.5-0.9c-16.2,1.9-32.3,4.5-48.1,8.3c-13.4,3.3-26.5,8-36.8,17.6C764.4,369.3,766.6,371.5,768,370.1
						L768,370.1z"/>
				</g>
			</g>
			<g>
				<g>
					<path d="M938.7,327.1c5.6,2.1,11.1,4.5,16.4,7.2c4.4,2.3,10.1,4.7,12.8,9.1c6.6,10.6-15.1,20.6-22.2,24.2
						c-1.7,0.9-0.2,3.5,1.5,2.6c6.8-3.4,13.8-7.3,19.5-12.5c3.7-3.4,6.6-7.9,5.1-13.1c-1.4-4.8-6.2-8-10.3-10.3c-7-4-14.4-7.2-22-10
						C937.7,323.6,936.9,326.5,938.7,327.1L938.7,327.1z"/>
				</g>
			</g>
			<g>
				<path fill="#FFFFFF" d="M997.4,340.9c-3.3-0.6-4.5-5.2-2.8-8.1c1.7-2.9,5.1-4.3,8.3-5.4c5.2-1.7,10.5-2.9,15.9-3.6
					c5.5-0.7,11.7-0.7,15.9,3c6.1,5.4,4.6,15,4.1,23.2c-1.2,19.6,7.1,39.6,22,52.4"/>
				<g>
					<path fill="#FF9900" d="M997.6,340.1c-5-1.6-2.9-6.3-1-8.4c1.4-1.6,3.1-2.4,5.1-3.2c2.7-1,5.6-1.8,8.4-2.4
						c5.8-1.4,12.6-2.9,18.5-1.5c13.3,3.3,9.5,18.3,9.4,28.4c-0.2,18.9,8.2,37.3,22.3,49.9c0.7,0.6,1.8-0.4,1.1-1.1
						c-11.2-9.9-18.7-23.4-21.1-38.2c-1.1-7-0.5-13.7-0.2-20.7c0.2-4.9,0.1-10.4-2.9-14.6c-7-9.7-23.4-5.1-32.7-2.2
						c-4.1,1.2-9.5,3-11,7.5c-1.1,3.4,0.4,6.9,3.8,8C998.1,341.9,998.5,340.4,997.6,340.1L997.6,340.1z"/>
				</g>
			</g>
			<g>
				<path fill="#FFFFFF" d="M1033.1,353.4c-10.1,16.5-19.2,33.6-27.2,51.3c-0.3,0.7-0.8,1.5-1.6,1.4c-0.8-0.1-0.3-1.7,0.2-1.1"/>
				<g>
					<path fill="#FF9900" d="M1032.4,353c-5.2,8.5-10.2,17.2-14.9,26c-2.3,4.4-4.6,8.9-6.8,13.4c-0.7,1.4-5.3,13.4-6.3,13.3
						c1,0,1-1.5,0-1.5c-0.2,0-0.3,0-0.5,0c-0.3,0-0.6,0.2-0.7,0.6c-0.3,1-0.2,1.1,0.4,1.8c0.2,0.2,0.5,0.3,0.7,0.2
						c3-1.3,3.9-5.8,5.2-8.6c2.4-5.1,4.9-10.1,7.5-15.1c5.2-10,10.7-19.8,16.6-29.4C1034.2,353,1032.9,352.2,1032.4,353L1032.4,353z
						"/>
				</g>
			</g>
			<g>
				<path d="M931,305.7c0-1,0.3-2.2,0.8-3.5c0.8-1.8,1.2-3.2,1.3-4c0-0.2-0.2-0.4-0.5-0.7c-0.4-0.3-0.5-0.5-0.5-0.6
					c0-0.2,0.1-0.3,0.2-0.4c0.1-0.2,0.4-0.3,0.8-0.3c0.4-0.1,0.7-0.2,0.7-0.4c0.5-1.2,1.2-3.6,2.2-7.1c0.4-1.5,0.8-2.8,1.2-4
					c0.4-1.1,0.7-2.1,1-2.9c0.2-0.4,0.5-0.5,1-0.5c0.4,0,0.7,0.1,1,0.3c0.7,0.6,1.2,1.5,1.4,2.7c0.1,0.5,0.2,1,0.2,1.6
					s0.1,1.1,0.2,1.6c0.6,3,1.3,5.7,1.9,8.2c0.7,2.4,1.3,4.7,2,6.6c0.2,0.4,0.2,0.8,0.2,1.1c0,0.5-0.2,1-0.6,1.3
					c-0.4,0.4-0.7,0.5-0.9,0.5c-1.2-0.2-2-1.2-2.4-3c-0.3-1.9-0.7-3.5-1.3-4.8l-2.6,0.2c-1,0.1-1.8,0.4-2.3,0.9
					c-0.1,0.4-0.3,1-0.5,1.6c-0.2,0.7-0.4,1.5-0.6,2.5c-0.4,1.9-0.8,3.3-1.3,4.2c-0.1,0.3-0.4,0.5-0.8,0.5c-0.1,0-0.2,0-0.2,0
					s-0.2,0-0.3-0.1c-0.8-0.3-1.3-0.6-1.3-1.1V305.7z M940.2,295c-0.1-0.5-0.1-1-0.2-1.5c-0.1-0.5-0.2-1.1-0.3-1.6
					c-0.1-0.5-0.2-1-0.4-1.5c-0.1-0.5-0.2-1-0.4-1.5c-0.8,2.1-1.4,4.2-2,6.3C937.4,295,938.5,295,940.2,295z"/>
				<path d="M950.1,301.9c-0.2-0.9-0.4-2.1-0.7-3.5c-0.2-1.4-0.4-3.1-0.6-5c-0.2-1.9-0.4-3.6-0.6-5c-0.2-1.4-0.4-2.6-0.7-3.4
					c-0.1-0.3,0-0.6,0.1-0.9c0.2-0.3,0.4-0.4,0.6-0.5c0.3,0,0.5-0.1,0.8-0.1c0.7,0,1.3,0.3,1.6,0.9c0.2,1.1,0.5,2.9,0.8,5.6
					c0.3,2.6,0.7,6.1,1.1,10.4c0.6-2.2,1.1-3.8,1.3-4.8c0.1-0.5,0.2-1,0.3-1.7c0.1-0.6,0.2-1.3,0.3-2.1c0.1-0.5,0.2-1,0.3-1.4
					c0.1-0.5,0.2-1,0.3-1.4c0.1-1.2,0.5-1.7,1.3-1.7c0.3,0,0.5,0,0.8,0.1c0,0.2,0.1,0.2,0.3,0.3c0.2,0,0.3,0.1,0.3,0.1
					c0.6,1.3,1,2.9,1.3,5c0.3,1.5,0.5,2.9,0.7,4.3c0.2,1.4,0.4,2.8,0.5,4.2c0.4-2.3,0.7-4.2,1-5.9c0.3-1.7,0.5-3.1,0.7-4.2
					c0.5-2.6,1.2-4.7,2.1-6.4c0.2-0.3,0.5-0.5,1.1-0.5c0.4,0,0.8,0.1,1.1,0.2c0.6,0.3,0.9,0.7,0.9,1.2c0,0.4-0.2,0.8-0.5,1.4
					c-0.2,0.4-0.3,0.7-0.4,1c-0.1,0.2-0.1,0.4-0.2,0.4c-0.3,0.9-0.6,2.1-1,3.5c-0.4,1.4-0.7,3.1-1.1,5c-0.4,1.9-0.8,3.6-1.1,5
					c-0.3,1.4-0.6,2.6-0.9,3.4c-0.2,0.5-0.6,0.8-1.3,0.8c-0.3,0-0.6-0.1-0.9-0.2c-0.9-0.5-1.6-1.4-2-2.8c0-0.1-0.1-0.4-0.2-0.9
					c-0.1-0.6-0.2-1.4-0.4-2.4c-0.1-0.8-0.2-1.7-0.3-2.8c-0.1-1.1-0.3-2.3-0.4-3.6c-0.3,1.4-0.6,2.7-0.8,3.9
					c-0.2,1.2-0.5,2.3-0.7,3.3c-0.5,2.4-1.1,4-1.8,4.6c-0.2,0.2-0.6,0.2-1.1,0.1c-0.8-0.1-1.4-0.6-1.6-1.4L950.1,301.9z"/>
				<path d="M972.2,308c-0.8-0.3-1.1-0.7-1.1-1.3c0-0.3,0.2-0.7,0.6-1.1c0.1-0.1,0.3-0.2,0.7-0.2c0.4,0,0.6-0.2,0.8-0.5
					c0.5-1.1,0.8-2.2,0.8-3.4c0-1.6-0.8-4-2.5-7.1c-1.6-3.1-2.4-5.6-2.4-7.5c0-1.5,0.3-2.9,0.9-4.1c0.7-1.4,1.7-2.4,2.9-3
					c0.6-0.3,1.2-0.4,1.7-0.4c1.1,0,1.9,0.3,2.4,0.9c0.3,0.3,0.4,0.5,0.4,0.8c0,0.5-0.4,1-1.1,1.3c-0.1,0.1-0.2,0.1-0.3,0.1
					c-0.2,0-0.3,0-0.3,0c-0.3-0.1-0.5-0.2-0.6-0.2c-0.2,0-0.3,0.1-0.5,0.2c-1.4,1.4-2.1,3-2.1,5c0,0.7,0.1,1.4,0.3,2.1
					c0,0.1,0.3,0.7,0.8,1.7c0.5,1,1.2,2.4,2.1,4.2c1.2,2.4,1.8,4.5,1.8,6.2c0,1.4-0.3,2.7-1,4c-0.2,0.4-0.8,1-1.7,1.7
					c-0.7,0.5-1.4,0.8-2,0.8C972.6,308.1,972.4,308.1,972.2,308z"/>
				<path d="M989.9,304v-0.8c0-1.1,0-2.3,0.1-3.7c0.1-1.4,0.2-3,0.3-4.7c0.4-4.2,0.6-7.3,0.6-9.2c0-0.7,0-1.3,0-1.9
					c0-0.6-0.1-1.2-0.1-1.8c0.3-0.3,0.7-0.5,1.3-0.5c1,0,1.5,0.4,1.7,1.1c0,0.3,0,0.5,0,0.8c0,0.3,0,0.6,0,0.9c0,1,0,2.1-0.1,3.4
					s-0.1,2.7-0.2,4.3c-0.1,1.7-0.2,3.3-0.2,4.7c0,1.4-0.1,2.6-0.1,3.6v1.1c0.7-0.3,1.6-0.8,2.8-1.6c0.6-0.4,1.2-0.8,1.6-1.1
					c0.4-0.3,0.8-0.5,1.1-0.6c0.1,0,0.3,0,0.7-0.1c0.3-0.1,0.6-0.1,0.7-0.1c0.5,0,0.9,0.2,1.1,0.6c0.2,0.3,0.2,0.6,0.2,0.8
					c0,0.3-0.1,0.5-0.2,0.6l-4.4,3.2c-0.9,0.6-1.7,1.1-2.4,1.6s-1.5,0.8-2.1,1.1c-0.2,0.1-0.3,0.1-0.5,0.1c-0.4,0-0.7-0.2-1-0.7
					L989.9,304z"/>
				<path d="M1016,303.4c0.1,0.2,0.2,0.4,0.2,0.6s0.1,0.4,0.1,0.6c0,0.2-0.1,0.4-0.2,0.5c-0.1,0.1-0.3,0.2-0.4,0.3s-0.3,0.1-0.5,0.2
					c-0.2,0-0.3,0.1-0.5,0.1c-0.5,0-0.9-0.3-1.3-0.9c-0.3-0.6-0.6-1.3-0.8-2.1c-0.2-0.8-0.4-1.7-0.5-2.7c-0.1-1-0.3-1.8-0.4-2.6
					c-0.1,0.5-0.3,1.2-0.7,2s-0.9,1.6-1.6,2.3c-0.6,0.7-1.3,1.4-2.1,1.9c-0.8,0.5-1.5,0.8-2.3,0.8c-0.6,0-1.1-0.1-1.5-0.4
					c-0.4-0.2-0.7-0.5-0.9-0.9c-0.2-0.4-0.3-0.8-0.4-1.2c-0.1-0.4-0.1-0.9-0.1-1.2c0-0.8,0.2-1.9,0.6-3.1c0.4-1.2,1-2.4,1.7-3.6
					c0.7-1.2,1.6-2.2,2.5-3c0.9-0.8,2-1.2,3-1.2c0.2,0,0.5,0,0.8,0.1c0.3,0.1,0.6,0.2,0.9,0.3c0.3,0.1,0.6,0.3,0.9,0.4
					c0.3,0.2,0.5,0.3,0.7,0.5c0.4,0.4,0.7,0.8,0.9,1.4c0.2,0.6,0.3,1.2,0.3,1.9c0.2,1.3,0.3,2.4,0.4,3.4c0.1,1,0.3,2.1,0.6,3.2
					l0.2,1.4L1016,303.4z M1005.3,301.4C1005.3,301.4,1005.3,301.4,1005.3,301.4c0,0.1,0,0.1,0,0.1c0.3,0,0.7-0.2,1.1-0.7
					s0.9-0.9,1.3-1.5s0.8-1.2,1.2-1.8c0.4-0.6,0.6-1.2,0.8-1.7c0.1-0.2,0.2-0.5,0.4-0.8c0.1-0.3,0.3-0.6,0.4-0.9
					c0.1-0.3,0.3-0.6,0.3-0.8c0.1-0.3,0.1-0.5,0.1-0.6c-0.1,0-0.2-0.1-0.3-0.2c-0.1-0.1-0.2-0.1-0.3-0.1c-0.6,0-1.1,0.2-1.5,0.6
					c-0.4,0.4-0.8,0.9-1.1,1.4c-0.3,0.5-0.6,1-0.8,1.5s-0.3,0.8-0.4,0.9c-0.4,0.6-0.7,1.3-0.9,2.1c-0.2,0.7-0.4,1.4-0.4,2.1V301.4z"
					/>
				<path d="M1038.9,294c0,1,0.1,2,0.3,2.9c0.2,0.9,0.3,1.9,0.5,2.9c0.1,0.5,0.2,1,0.4,1.6c0.2,0.5,0.4,1.1,0.4,1.6
					c0,0.6-0.2,1-0.5,1.3c-0.3,0.3-0.8,0.5-1.2,0.5c-0.5,0-0.9-0.2-1.2-0.7c-0.3-0.5-0.5-1.1-0.6-1.7c-0.1-0.6-0.2-1.3-0.3-1.9
					c-0.1-0.6-0.1-1.1-0.2-1.3c-0.2-0.4-0.3-0.8-0.3-1.2s-0.1-0.8-0.1-1.2c0-0.4-0.1-0.8-0.1-1.2c0-0.4-0.1-0.8-0.2-1.3
					c-0.2,0.4-0.5,0.9-0.7,1.4c-0.3,0.5-0.5,1-0.8,1.5c-0.3,0.5-0.5,1-0.8,1.5c-0.3,0.5-0.5,0.9-0.6,1.3c-0.2,0.4-0.4,0.8-0.5,1.2
					c-0.1,0.4-0.2,0.8-0.3,1.2s-0.2,0.8-0.3,1.1c-0.1,0.4-0.3,0.8-0.5,1.2c-0.3,0.2-0.6,0.2-1,0.2c-0.5,0-0.9-0.2-1.1-0.5
					c-0.3-0.4-0.5-0.8-0.6-1.3c-0.1-0.5-0.2-1.1-0.3-1.7c-0.1-0.6-0.1-1.1-0.2-1.6c-0.1-0.5-0.1-1-0.2-1.6c-0.1-0.6-0.2-1.1-0.3-1.7
					c-0.1-0.5-0.3-1.1-0.5-1.5c-0.2-0.5-0.3-0.9-0.6-1.2c-0.4,0.3-0.7,0.7-0.9,1.2s-0.5,1-0.7,1.6c-0.2,0.5-0.4,1.1-0.6,1.6
					c-0.2,0.5-0.3,0.9-0.4,1.2c-0.3,0.6-0.6,1.2-0.7,1.8c-0.1,0.6-0.2,1.1-0.4,1.6c-0.1,0.5-0.4,0.9-0.6,1.2
					c-0.3,0.3-0.8,0.5-1.5,0.5c-0.2,0-0.4-0.1-0.6-0.2c-0.2-0.1-0.3-0.3-0.5-0.5s-0.2-0.4-0.3-0.6c-0.1-0.2-0.1-0.4-0.1-0.6
					c0.1-0.3,0.1-0.5,0.1-0.8c0-0.3,0-0.5,0-0.8c0-0.1,0-0.3,0-0.6c0-0.3,0-0.6,0.1-1c0-0.3,0-0.7,0.1-1s0-0.5,0-0.6
					c0-1.4,0-2.4,0-3.1c0-0.6-0.1-1-0.1-1.3c0-0.2-0.1-0.3-0.1-0.4c0,0,0-0.1,0-0.3c0-0.3,0-0.5-0.1-0.8c-0.1-0.3-0.1-0.5-0.1-0.8
					c0-0.4,0.2-0.7,0.5-0.9c0.3-0.3,0.6-0.4,1-0.4c0.5,0,0.8,0.1,1.1,0.3c0.3,0.2,0.4,0.5,0.6,0.9c0.1,0.3,0.2,0.7,0.2,1.1
					c0,0.4,0,0.7,0,1c0,0.3,0,0.6-0.1,1c0,0.4-0.1,0.7-0.1,1c0,0.2,0,0.4,0.1,0.6c0.2-0.3,0.3-0.7,0.5-1.1c0.2-0.4,0.4-0.8,0.6-1.2
					c0.2-0.4,0.4-0.8,0.7-1.2c0.2-0.4,0.5-0.7,0.7-1c0.3-0.4,0.7-0.8,1.1-1.2c0.4-0.4,0.9-0.6,1.4-0.6c0.6,0,1,0.1,1.3,0.4
					c0.3,0.3,0.5,0.6,0.7,1s0.3,0.8,0.3,1.3c0.1,0.5,0.1,0.9,0.2,1.3c0.2,0.7,0.4,1.6,0.6,2.5c0.2,0.9,0.4,1.7,0.6,2.5
					c0.1-0.2,0.1-0.4,0.2-0.7c0.1-0.3,0.2-0.6,0.4-0.9c0.1-0.3,0.3-0.6,0.4-0.9c0.1-0.3,0.2-0.5,0.3-0.6c0.2-0.5,0.5-1,0.8-1.6
					c0.3-0.6,0.6-1.1,1-1.6s0.8-0.9,1.4-1.3c0.5-0.4,1.1-0.6,1.8-0.6c0.3,0.2,0.6,0.3,0.8,0.4s0.5,0.2,0.6,0.4
					c0.2,0.2,0.3,0.5,0.4,0.9c0.1,0.4,0.2,0.9,0.2,1.6V294z"/>
				<path d="M1046.2,292.4c0,0.1,0,0.2,0,0.4c0,0.2,0,0.5,0,0.8s0,0.6,0,0.8c0,0.3,0,0.4,0,0.5c0.2-0.5,0.5-0.9,0.8-1.4
					c0.3-0.5,0.8-1.1,1.4-1.9c0.1-0.1,0.2-0.2,0.3-0.3c0.2-0.2,0.4-0.3,0.7-0.5c0.3-0.2,0.6-0.3,1-0.5c0.4-0.1,0.8-0.2,1.2-0.2
					c0.8,0,1.4,0.2,1.8,0.6s0.8,0.9,1.1,1.5c0.3,0.6,0.5,1.3,0.6,2c0.1,0.7,0.2,1.3,0.2,1.9c0,0.3,0,0.7-0.1,1.3
					c-0.1,0.6-0.2,1.2-0.3,1.8c-0.2,0.6-0.4,1.3-0.6,1.9c-0.3,0.6-0.6,1.1-1,1.5c-0.6,0.5-1.3,0.9-2.1,1.2c-0.8,0.3-1.5,0.4-2.1,0.4
					c-0.6,0-1.3-0.1-1.9-0.2c-0.6-0.1-1.2-0.2-1.8-0.4c-0.2-0.1-0.3-0.2-0.4-0.4c-0.1-0.2-0.3-0.5-0.4-0.7c-0.1-0.3-0.3-0.6-0.4-0.9
					c-0.1-0.3-0.2-0.6-0.3-0.9c-0.1-0.1-0.2-0.3-0.2-0.7s-0.1-0.9-0.2-1.5s-0.1-1.2-0.2-1.8c0-0.6-0.1-1.2-0.1-1.7
					c0-2.1,0-4.2,0.1-6.4s0.3-4.4,0.6-6.9c0-0.5,0-0.9,0.1-1.4s0.2-0.9,0.3-1.4c0.1-0.4,0.4-0.6,0.9-0.7s0.8-0.1,1.1-0.1
					c0.2,0,0.4,0.1,0.6,0.2c0.2,0.1,0.3,0.3,0.4,0.5c-0.1,1.6-0.3,3.2-0.5,4.6c-0.2,1.4-0.4,3-0.4,4.6L1046.2,292.4z M1048.1,296.9
					c-0.1,0.4-0.2,0.7-0.4,1c-0.1,0.3-0.2,0.6-0.3,1c-0.1,0.3-0.2,0.7-0.2,1s-0.1,0.8-0.1,1.2c0.3,0.3,0.5,0.5,0.8,0.5
					c0.3,0.1,0.6,0.1,1,0.1c0.6-0.1,1.1-0.3,1.5-0.7c0.4-0.4,0.7-0.9,0.9-1.5c0.2-0.6,0.4-1.2,0.5-1.9c0.1-0.7,0.1-1.3,0.1-1.9
					c0-0.2,0-0.5,0-0.8c0-0.3-0.1-0.6-0.1-0.9c-0.1-0.3-0.1-0.5-0.2-0.7c-0.1-0.2-0.2-0.3-0.4-0.3c-0.2,0-0.4,0.1-0.7,0.4
					c-0.3,0.3-0.6,0.6-0.9,0.9c-0.3,0.4-0.6,0.8-0.9,1.2c-0.3,0.4-0.5,0.8-0.6,1.1L1048.1,296.9z"/>
				<path d="M1069.7,296.9c0,0.1,0,0.3,0.1,0.7c0.1,0.4,0.2,0.8,0.3,1.2c0.1,0.4,0.3,0.8,0.4,1.3c0.1,0.4,0.2,0.7,0.3,0.8
					c0.2,0.3,0.3,0.6,0.3,0.9s0.2,0.6,0.3,0.9c0,0.5-0.1,0.9-0.4,1.1c-0.3,0.2-0.5,0.3-0.8,0.3c-0.1,0-0.2,0-0.5,0
					c-0.3,0-0.4,0-0.5,0c-0.3-0.1-0.5-0.2-0.7-0.3c-0.2-0.1-0.5-0.5-0.7-1.1c-0.1-0.2-0.3-0.5-0.4-1s-0.2-1-0.4-1.5
					c-0.1-0.5-0.2-1-0.3-1.5c-0.1-0.5-0.2-0.8-0.3-1c-0.2,1-0.5,2-0.9,2.8s-0.9,1.5-1.4,2.1c-0.5,0.6-1.1,1-1.7,1.3
					c-0.6,0.3-1.2,0.5-1.7,0.5c-1.3,0-2.2-0.4-2.8-1.3s-0.9-1.9-0.9-3.2c0-0.7,0.1-1.5,0.3-2.4c0.2-0.9,0.5-1.8,0.9-2.6
					c0.4-0.9,0.9-1.7,1.4-2.4s1.2-1.4,1.8-1.8c0.1-0.1,0.3-0.2,0.5-0.4c0.3-0.2,0.6-0.3,1.1-0.3c0.4,0,0.7,0.1,1,0.2
					c0.3,0.1,0.7,0.2,1,0.3c0-0.9,0-1.8-0.1-2.6c-0.1-0.9-0.1-1.7-0.1-2.5c0-0.1,0-0.4,0-1c0-0.6,0-1.2,0-2c0-0.3,0-0.5,0-0.8
					c0-0.3,0-0.5,0-0.8c0.1-0.2,0.1-0.4,0-0.7c0-0.2,0.1-0.4,0.2-0.6c0.2-0.3,0.5-0.4,0.8-0.6s0.6-0.2,0.9-0.2
					c0.5,0,0.8,0.2,1.1,0.5c0.3,0.3,0.4,0.7,0.4,1.1c0,0.9,0,1.7-0.1,2.5c-0.1,0.8-0.1,1.6-0.1,2.6c0,0.6,0,1.3,0.1,2.1
					c0.1,0.8,0.2,1.5,0.2,2.2c0.1,0.5,0.1,1.1,0.2,1.7c0.1,0.6,0.1,1.3,0.2,1.9c0.1,0.6,0.2,1.3,0.3,1.9c0.1,0.6,0.2,1.2,0.4,1.6
					V296.9z M1060.7,301.5c0.5,0,1-0.2,1.4-0.6s0.7-0.8,1-1.4c0.3-0.5,0.5-1.1,0.7-1.7c0.2-0.6,0.4-1.1,0.6-1.5
					c0.1-0.4,0.2-0.8,0.3-1.1c0.1-0.4,0.2-0.8,0.2-1.2c0-0.1,0-0.1-0.1-0.1c-0.1,0-0.2,0-0.3,0c-0.1,0-0.3,0-0.4-0.1
					c-0.1,0-0.2-0.1-0.3-0.2c0-0.1,0-0.3,0-0.4c0-0.1,0-0.3,0-0.4c-0.1,0-0.1,0-0.2,0s-0.1,0-0.2,0c-0.4,0.5-0.8,1-1.2,1.5
					c-0.4,0.5-0.8,1.1-1,1.8c-0.2,0.5-0.3,0.9-0.4,1.2s-0.2,0.7-0.3,1c-0.1,0.3-0.1,0.6-0.2,0.9s-0.1,0.7-0.1,1
					c0,0.2,0.1,0.4,0.2,0.6C1060.5,301.1,1060.6,301.3,1060.7,301.5z"/>
				<path d="M1086.9,303.4c0.1,0.2,0.2,0.4,0.2,0.6s0.1,0.4,0.1,0.6c0,0.2-0.1,0.4-0.2,0.5c-0.1,0.1-0.3,0.2-0.4,0.3
					s-0.3,0.1-0.5,0.2c-0.2,0-0.3,0.1-0.5,0.1c-0.5,0-0.9-0.3-1.3-0.9c-0.3-0.6-0.6-1.3-0.8-2.1c-0.2-0.8-0.4-1.7-0.5-2.7
					c-0.1-1-0.3-1.8-0.4-2.6c-0.1,0.5-0.3,1.2-0.7,2s-0.9,1.6-1.6,2.3c-0.6,0.7-1.3,1.4-2.1,1.9c-0.8,0.5-1.5,0.8-2.3,0.8
					c-0.6,0-1.1-0.1-1.5-0.4c-0.4-0.2-0.7-0.5-0.9-0.9c-0.2-0.4-0.3-0.8-0.4-1.2c-0.1-0.4-0.1-0.9-0.1-1.2c0-0.8,0.2-1.9,0.6-3.1
					c0.4-1.2,1-2.4,1.7-3.6c0.7-1.2,1.6-2.2,2.5-3c0.9-0.8,2-1.2,3-1.2c0.2,0,0.5,0,0.8,0.1c0.3,0.1,0.6,0.2,0.9,0.3
					c0.3,0.1,0.6,0.3,0.9,0.4c0.3,0.2,0.5,0.3,0.7,0.5c0.4,0.4,0.7,0.8,0.9,1.4c0.2,0.6,0.3,1.2,0.3,1.9c0.2,1.3,0.3,2.4,0.4,3.4
					c0.1,1,0.3,2.1,0.6,3.2l0.2,1.4L1086.9,303.4z M1076.2,301.4C1076.2,301.4,1076.2,301.4,1076.2,301.4c0,0.1,0,0.1,0,0.1
					c0.3,0,0.7-0.2,1.1-0.7s0.9-0.9,1.3-1.5s0.8-1.2,1.2-1.8c0.4-0.6,0.6-1.2,0.8-1.7c0.1-0.2,0.2-0.5,0.4-0.8
					c0.1-0.3,0.3-0.6,0.4-0.9c0.1-0.3,0.3-0.6,0.3-0.8c0.1-0.3,0.1-0.5,0.1-0.6c-0.1,0-0.2-0.1-0.3-0.2c-0.1-0.1-0.2-0.1-0.3-0.1
					c-0.6,0-1.1,0.2-1.5,0.6c-0.4,0.4-0.8,0.9-1.1,1.4c-0.3,0.5-0.6,1-0.8,1.5s-0.3,0.8-0.4,0.9c-0.4,0.6-0.7,1.3-0.9,2.1
					c-0.2,0.7-0.4,1.4-0.4,2.1V301.4z"/>
			</g>
		</g>
		<g id="t-5_9_">
			<g>
				<g>
					<path d="M1097.3,360.1c29.5-2,59-1.7,88.5,0.6c1.9,0.2,1.9-2.8,0-3c-29.5-2.4-59-2.6-88.5-0.6
						C1095.3,357.3,1095.3,360.3,1097.3,360.1L1097.3,360.1z"/>
				</g>
			</g>
			<g>
				<g>
					<path d="M1203.8,353c1.9,0,1.9-3,0-3C1201.9,350,1201.9,353,1203.8,353L1203.8,353z"/>
				</g>
			</g>
			<g>
				<g>
					<path d="M1178.5,343.1c10.1,7.7,21.8,12.2,34.4,13.5c-0.4-0.9-0.7-1.7-1.1-2.6c-7.6,8-15.8,15.4-24.6,22.1
						c-1.5,1.2,0,3.8,1.5,2.6c9-6.9,17.4-14.4,25.2-22.6c1-1,0.2-2.4-1.1-2.6c-12.1-1.3-23.2-5.8-32.9-13.1
						C1178.5,339.4,1177,342,1178.5,343.1L1178.5,343.1z"/>
				</g>
			</g>
			<g>
				<g>
					<path d="M1248.7,329.7c-3.7-5.3,4.8-9.3,8.7-10c4.3-0.8,9,0.1,12.6,2.7c7.4,5.3,8.7,15.3,4.3,22.8c-6,10.5-20.9,20-15.1,33.9
						c0.7,1.8,3.6,1,2.9-0.8c-5-12.3,8.2-21.2,14-30.3c4.7-7.3,5.3-16.4,0.1-23.7c-4.6-6.4-12.7-9.1-20.3-7.4
						c-5.8,1.3-14.5,7.6-9.8,14.3C1247.2,332.7,1249.8,331.2,1248.7,329.7L1248.7,329.7z"/>
				</g>
			</g>
			<g>
				<g>
					<path d="M1268.3,411.5c0-1,0-2,0-3c0-1.9-3-1.9-3,0c0,1,0,2,0,3C1265.3,413.5,1268.3,413.5,1268.3,411.5L1268.3,411.5z"/>
				</g>
			</g>
		</g>
		<g id="t-6_5_">
			<g>
				<g>
					<path d="M992.7,417c-33.3,44-95.5,52-146.4,58.1c-18.8,2.2-37.6,3.9-56.5,4.9c-1.9,0.1-1.9,3.1,0,3
						c33.4-1.8,66.8-5.2,99.8-11.2c25.8-4.6,51.9-11.6,74.4-25.2c12.1-7.4,22.8-16.7,31.4-28C996.4,417,993.8,415.5,992.7,417
						L992.7,417z"/>
				</g>
			</g>
			<g>
				<g>
					<path d="M794,463.6c-11.2,6.4-27.3,17.9-20.7,33.2c5.6,12.9,24,14.4,35.7,16.9c1.9,0.4,2.7-2.5,0.8-2.9
						c-10.3-2.2-26-3.3-32.5-12.9c-9.4-13.8,8.1-25.8,18.2-31.7C797.2,465.3,795.7,462.7,794,463.6L794,463.6z"/>
				</g>
			</g>
			<g>
				<g>
					<path d="M596.7,477.8c-2,0.5-3,2.7-1.9,4.6c1.9,3.2,6.4,0.7,8.8-0.2c12.6-4.6,26.4-4,38.8,1c1.8,0.7,2.6-2.2,0.8-2.9
						c-7.4-3-15.1-4.5-23.1-4.3c-3.6,0.1-7.2,0.6-10.6,1.3c-2,0.4-3.9,1-5.8,1.6c-1.1,0.4-2.2,0.8-3.2,1.2c-0.9,0.6-1.9,0.7-3,0.4
						C599.4,480.3,598.6,477.4,596.7,477.8L596.7,477.8z"/>
				</g>
			</g>
			<g>
				<g>
					<path d="M694.3,485.5c1.9,0,1.9-3,0-3C692.4,482.5,692.4,485.5,694.3,485.5L694.3,485.5z"/>
				</g>
			</g>
			<g>
				<g>
					<path d="M683.1,482.4c6.4-4.2,12.8-8.5,19.2-12.7c-0.7-0.2-1.4-0.4-2.1-0.5c2.3,4.7,7,6.8,12.1,7.3c4.6,0.4,26.2-5.4,25.6,1.7
						c-0.1,1.9,2.9,1.9,3,0c0.5-6.8-8.6-7-13.3-6.5c-7.9,0.9-20.2,5.4-24.8-4c-0.3-0.7-1.4-1-2.1-0.5c-6.4,4.2-12.8,8.5-19.2,12.7
						C680,480.9,681.5,483.5,683.1,482.4L683.1,482.4z"/>
				</g>
			</g>
			<g>
				<g>
					<path d="M638.6,505.5c17.4,3.3,35,4.7,52.7,4.1c1.9-0.1,1.9-3.1,0-3c-17.4,0.6-34.8-0.7-51.9-4
						C637.5,502.3,636.7,505.2,638.6,505.5L638.6,505.5z"/>
				</g>
			</g>
			<g>
				<g>
					<path d="M711.3,523.9c7.9-3.7,16.4-4.1,25-4.3c8.5-0.3,17.1-0.5,25.6-0.7c1.9-0.1,1.9-3.1,0-3c-9.7,0.3-19.4,0.4-29.1,0.8
						c-7.9,0.3-15.7,1.2-22.9,4.6C708,522.2,709.6,524.8,711.3,523.9L711.3,523.9z"/>
				</g>
			</g>
			<g>
				<g>
					<path d="M601.3,526.8c22.5,0.7,45,1.3,67.5,2c1.9,0.1,1.9-2.9,0-3c-22.5-0.7-45-1.3-67.5-2
						C599.4,523.8,599.4,526.8,601.3,526.8L601.3,526.8z"/>
				</g>
			</g>
			<g>
				<path d="M662.2,569.4c0,0.2,0,0.3,0,0.4c0,0.1,0,0.2-0.1,0.3c-0.1,0.4-0.4,0.6-0.8,0.6c-0.7,0-1.3-0.3-1.8-0.9
					c-0.5-0.6-0.7-1.3-0.8-2c-0.1-0.9-0.1-1.9-0.1-3c0-1.7,0.1-4.3,0.3-7.9c0.1-1.5,0.2-2.9,0.2-4.1c0.1-1.2,0.1-2.2,0.1-3.1v-0.7
					h-0.5c-0.3,0-0.7,0-1,0c-0.4,0-0.8,0.1-1.3,0.2c-0.3,0.1-0.5,0.1-0.6,0.1c-0.2,0-0.4,0.1-0.6,0.1c-1.2,0-2.2-0.3-3-1
					c-0.3-0.6-0.5-1-0.5-1c0-0.2,0.1-0.4,0.3-0.6c0.4-0.1,0.9-0.2,1.4-0.4c0.5-0.1,1.2-0.2,2-0.3c2.1-0.2,3.8-0.6,4.9-1.2
					c1,0.3,2,0.4,3,0.4c1.1,0,2.2-0.1,3.3-0.4c0.2,0,0.4-0.1,0.7-0.2s0.7-0.2,1-0.3c0.6-0.2,1.2-0.3,1.8-0.3c0.1,0,0.2,0,0.2,0
					c0.1,0,0.2,0,0.2,0c0.4,0,0.6,0.1,0.6,0.4v0.2c0.7,0,1,0.2,1,0.7c-0.2,0.9-0.7,1.4-1.3,1.6c-0.8,0.2-1.8,0.4-3.1,0.7
					c-1.3,0.2-2.9,0.5-4.9,0.9c-0.3,3.2-0.4,6.1-0.6,8.7c-0.1,2.6-0.2,5-0.2,7.1c0,0.8,0,1.6,0,2.4c0,0.8,0,1.6,0.1,2.3V569.4z"/>
				<path d="M666.8,562.7c0-0.9,0.1-1.9,0.4-2.8c0.2-1,0.6-1.8,1.1-2.6c0.5-0.8,1.1-1.4,1.8-1.8c0.7-0.5,1.5-0.7,2.5-0.7
					c0.7,0,1.2,0.1,1.7,0.3c0.5,0.2,0.9,0.5,1.2,0.8c0.3,0.3,0.6,0.7,0.7,1.1c0.2,0.4,0.2,0.9,0.2,1.3c0,0.6-0.1,1.1-0.3,1.7
					c-0.2,0.5-0.5,1-0.9,1.5c-0.4,0.4-0.9,0.8-1.5,1c-0.6,0.3-1.3,0.4-2,0.4c-0.3,0-0.6,0-0.9,0c-0.3-0.1-0.5-0.1-0.9-0.2
					c0,0.1,0,0.2,0,0.3c0,0.1,0,0.2,0,0.2c0,0.9,0.2,1.7,0.5,2.2c0.3,0.5,0.6,0.9,0.9,1.2c0.3,0.3,0.6,0.4,1,0.5
					c0.3,0.1,0.5,0.1,0.6,0.1c0.8,0,1.4-0.2,2-0.5c0.5-0.4,1.1-0.7,1.7-1.2c0.1,0.1,0.3,0.1,0.4,0.2c0.2,0.1,0.3,0.2,0.4,0.4
					c0,0.2,0,0.3,0.1,0.4s0,0.2,0,0.4c0,0.4-0.1,0.7-0.3,0.9c-0.2,0.2-0.3,0.4-0.6,0.6c-0.7,0.6-1.3,0.9-1.8,1.1
					c-0.6,0.2-1.3,0.2-2.2,0.2c-0.4,0-0.9-0.1-1.5-0.3c-0.6-0.2-1.1-0.4-1.5-0.6c-0.6-0.5-1.1-0.9-1.4-1.4c-0.3-0.5-0.6-0.9-0.8-1.4
					c-0.2-0.5-0.3-1-0.4-1.6C666.9,563.9,666.8,563.3,666.8,562.7z M670.1,560.7c0.1,0,0.3,0,0.5,0.1c0.2,0,0.4,0,0.5,0
					c0.9,0,1.5-0.2,2-0.6s0.7-1,0.7-1.6c0-0.4-0.1-0.7-0.3-1c-0.2-0.3-0.5-0.5-0.8-0.5c-0.3,0-0.5,0-0.7,0.1
					c-0.2,0.1-0.4,0.2-0.6,0.4c-0.1,0.1-0.2,0.3-0.3,0.4s-0.2,0.3-0.4,0.5c-0.1,0.2-0.2,0.5-0.3,0.9
					C670.3,559.7,670.2,560.1,670.1,560.7z"/>
				<path d="M678.6,555.1c0.1-0.1,0.2-0.3,0.3-0.4c0.1-0.1,0.3-0.2,0.5-0.2c0.5,0.1,0.9,0.2,1.3,0.4c0.4,0.2,0.8,0.6,1.2,1.1
					c0.3,0.5,0.5,0.9,0.7,1.3c0.2,0.3,0.3,0.7,0.5,1s0.3,0.6,0.5,0.8c0.2,0.3,0.4,0.5,0.6,0.8c0.1-0.2,0.3-0.5,0.6-0.9
					c0.3-0.4,0.6-0.8,0.9-1.2s0.6-0.7,0.8-1c0.3-0.3,0.4-0.5,0.5-0.5c0.3-0.4,0.6-0.7,1-1.1c0.4-0.4,0.8-0.5,1.3-0.5
					c0.5,0,0.9,0.1,1.3,0.3c0.4,0.2,0.6,0.5,0.6,1c0,0.2,0,0.3-0.1,0.5c-0.5,0.6-0.9,1.1-1.4,1.7c-0.5,0.5-1,1-1.4,1.3
					c-0.1,0.2-0.3,0.5-0.6,0.8c-0.3,0.3-0.5,0.6-0.8,0.9c-0.3,0.3-0.5,0.6-0.7,0.8c-0.2,0.3-0.3,0.4-0.3,0.6c0,0.1,0.1,0.3,0.4,0.5
					c0.2,0.3,0.5,0.6,0.8,0.9s0.6,0.7,0.9,1c0.3,0.3,0.5,0.6,0.5,0.8c0.3,0.4,0.6,0.8,0.9,1.2c0.3,0.4,0.5,0.8,0.5,1.3
					c0,0.2-0.1,0.4-0.3,0.6c-0.2,0.2-0.4,0.3-0.6,0.5c-0.2,0-0.3,0-0.4,0s-0.2,0-0.4,0s-0.3,0-0.4,0s-0.3-0.1-0.5-0.2
					c-0.2-0.2-0.4-0.4-0.7-0.8c-0.3-0.4-0.6-0.8-0.9-1.2c-0.3-0.4-0.6-0.8-0.9-1.2c-0.3-0.4-0.5-0.6-0.6-0.6c-0.2,0.3-0.5,0.6-0.7,1
					c-0.2,0.4-0.5,0.8-0.7,1.1c-0.2,0.4-0.4,0.7-0.6,1.1c-0.2,0.4-0.3,0.7-0.4,0.9c-0.2,0.4-0.4,0.9-0.7,1.3s-0.7,0.7-1.1,0.7
					c-0.3,0-0.5-0.1-0.8-0.3c-0.4-0.3-0.6-0.6-0.7-1c-0.1-0.3-0.2-0.7-0.2-1.1c0-0.1,0-0.1,0-0.1c0,0,0-0.1,0-0.1
					c0.3-0.7,0.6-1.4,1.1-2c0.4-0.6,0.9-1.3,1.2-2c0.2-0.4,0.5-0.8,0.8-1.1c0.3-0.4,0.5-0.8,0.5-1.2c-0.3-0.6-0.5-1-0.7-1.4
					c-0.2-0.4-0.4-0.8-0.6-1.1s-0.4-0.7-0.6-1.1c-0.2-0.4-0.5-0.8-0.7-1.2c-0.2-0.3-0.4-0.6-0.7-0.9c-0.3-0.3-0.4-0.6-0.5-1
					L678.6,555.1z"/>
				<path d="M696.3,544.9c0-0.3,0-0.6,0.1-1c0.2-0.1,0.4-0.2,0.5-0.2c0.1-0.1,0.3-0.1,0.5-0.1c0.4,0,0.8,0.1,1,0.2
					c0.3,0.2,0.5,0.3,0.6,0.6c0.1,0.2,0.2,0.5,0.3,0.8c0,0.3,0.1,0.6,0.1,0.9c0,0.5,0,1,0,1.4s0,0.8,0,1.2c0,0.4,0,0.8,0,1.2
					c0,0.4,0,0.8,0,1.2c0,0.3,0,0.6,0,0.9s0,0.6,0,1c0,0.2,0,0.3,0,0.4s0.1,0.2,0.3,0.2c0.7,0,1.2-0.1,1.7-0.3
					c0.5-0.2,1.1-0.3,1.7-0.3c0.4,0,0.6,0.1,0.7,0.4c0.1,0.3,0.2,0.6,0.2,0.8c0,0.3-0.1,0.6-0.2,0.8c-0.2,0.2-0.3,0.3-0.6,0.4
					c-0.2,0.1-0.5,0.2-0.7,0.2c-0.3,0.1-0.5,0.1-0.8,0.2c-0.2,0.1-0.5,0.2-0.8,0.3s-0.6,0.2-0.9,0.3c-0.3,0.1-0.5,0.3-0.7,0.5
					c-0.2,0.2-0.3,0.5-0.3,0.8c0,0.2,0,0.3,0,0.5c0,0.2,0,0.3,0,0.5c0,0.2,0,0.3,0,0.5c0,0.2,0,0.3,0,0.5c0,1.1,0.1,2.3,0.2,3.6
					s0.3,2.4,0.6,3.6c0.1,0.4,0.2,0.7,0.3,1.1c0.1,0.4,0.2,0.7,0.2,1c0,0.4-0.1,0.7-0.3,1c-0.2,0.2-0.5,0.3-0.8,0.4
					c-0.3,0.1-0.4,0.1-0.5,0.1c-0.4,0-0.7-0.1-1-0.4c-0.3-0.2-0.5-0.5-0.7-0.9c-0.1-0.4-0.2-0.8-0.3-1.4s-0.1-1.2-0.2-1.7
					c-0.1-1.2-0.1-2.5-0.2-3.7c0-1.2-0.1-2.5-0.1-3.7c0-0.1,0-0.2,0-0.3c0-0.1,0-0.2-0.1-0.3c-0.5,0.1-0.8,0.2-1.1,0.3
					c-0.3,0.2-0.7,0.2-1.1,0.2c-0.5,0-0.9-0.2-1.3-0.5c-0.4-0.3-0.6-0.6-0.8-0.8c0-0.3,0.1-0.6,0.2-1.1c0.3-0.1,0.6-0.2,0.9-0.3
					c0.3-0.1,0.6-0.1,0.8-0.2c0.3,0,0.5-0.1,0.8-0.2c0.3-0.1,0.6-0.2,0.9-0.4c0.4,0,0.6-0.2,0.7-0.5c0.1-0.3,0.1-0.6,0.1-0.8
					c0-0.5,0-0.8,0-1.2c0-0.3,0-0.8,0-1.3c0-0.4,0-0.8,0-1.2s0-0.8,0-1.2V544.9z"/>
			</g>
		</g>
		<g id="t-7_4_">
			<g>
				<g>
					<path d="M575.8,508.2c-58.3-3.3-118.7,8.1-175.1-11.4c-1.2-0.4-2,0.8-1.8,1.8c2.3,14.9,10.6,27.8,23,36.3
						c1.2,0.8,2.4-0.5,2.2-1.7c-0.4-2.7-1.4-4.7-3.2-6.8c-1.3-1.5-3.4,0.7-2.1,2.1c1.5,1.7,2.1,3.3,2.4,5.5c0.7-0.6,1.5-1.1,2.2-1.7
						c-11.7-8.1-19.4-20.5-21.6-34.6c-0.6,0.6-1.2,1.2-1.8,1.8c56.7,19.6,117.3,8.1,175.9,11.5C577.7,511.3,577.7,508.3,575.8,508.2
						L575.8,508.2z"/>
				</g>
			</g>
			<g>
				<g>
					<path d="M418.7,495.9c9.5-2,19-4,28.5-6c1.9-0.4,1.1-3.3-0.8-2.9c-9.5,2-19,4-28.5,6C416,493.4,416.8,496.3,418.7,495.9
						L418.7,495.9z"/>
				</g>
			</g>
			<g>
				<g>
					<path fill="#FFFFFF" d="M379.4,479.9c-12-2.4-24.4-3.1-36.6-2.2"/>
					<g>
						<path fill="#FF9900" d="M379.6,479.1c-12.2-2.3-24.4-3.1-36.8-2.2c-1,0.1-1,1.6,0,1.5c12.2-0.8,24.4-0.1,36.4,2.2
							C380.1,480.8,380.5,479.3,379.6,479.1L379.6,479.1z"/>
					</g>
				</g>
				<g>
					<path fill="#FFFFFF" d="M372.3,527.4c-13.6,0-27.2-2.2-40-6.6"/>
					<g>
						<path fill="#FF9900" d="M372.3,526.7c-13.6-0.1-26.9-2.3-39.8-6.6c-0.9-0.3-1.3,1.1-0.4,1.4c13,4.4,26.5,6.6,40.2,6.7
							C373.3,528.2,373.3,526.7,372.3,526.7L372.3,526.7z"/>
					</g>
				</g>
				<g>
					<path fill="#FFFFFF" d="M343.8,481.3c-0.9-6.9-2-14.2-6.7-19.4c-4.6-5.2-14.1-6.5-18.1-0.8"/>
					<g>
						<path fill="#FF9900" d="M344.5,481.1c-1-7.7-2.4-17.1-9.3-21.8c-5.2-3.5-12.5-3.8-16.7,1.3c-0.6,0.7,0.5,1.8,1.1,1.1
							c4.8-6,13.7-3.5,17.9,1.9c3.9,5.1,4.8,11.7,5.6,17.9C343.2,482.4,344.6,482,344.5,481.1L344.5,481.1z"/>
					</g>
				</g>
				<g>
					<path fill="#FFFFFF" d="M334.8,525.6c-0.5,5.6-4.7,10.8-10.2,12.3s-11.8-0.6-15.2-5.1"/>
					<g>
						<path fill="#FF9900" d="M334.1,525.4c-1.8,12.1-16.2,16.3-24.1,6.9c-0.6-0.7-1.7,0.3-1.1,1.1c8.6,10.2,24.7,5.7,26.6-7.6
							C335.7,524.9,334.2,524.5,334.1,525.4L334.1,525.4z"/>
					</g>
				</g>
				<g>
					<path fill="#FFFFFF" d="M317.9,459.6c-4,24.8-8,49.7-12,74.5c-0.1,0.9-0.5,1.9-1.4,2c-0.9,0.1-0.7-1.8,0-1.2"/>
					<g>
						<path fill="#FF9900" d="M317.2,459.4c-2.1,12.7-4.1,25.5-6.2,38.2c-0.5,3.3-5.3,38.1-6.5,38c1,0.1,1-1.4,0-1.5
							c-0.1,0-0.3,0-0.4,0c-0.3,0-0.6,0.3-0.7,0.6c-0.6,1.8,1,2.8,2.4,1.6c1.6-1.3,1.5-6.2,1.8-7.9c0.7-4.6,1.5-9.1,2.2-13.7
							c3-18.3,5.9-36.6,8.9-54.9C318.8,458.9,317.4,458.5,317.2,459.4L317.2,459.4z"/>
					</g>
				</g>
				<g>
					<path fill="#FFFFFF" d="M301.3,482.3c-4.1,9.2-4.8,19.8-1.9,29.5"/>
					<g>
						<path fill="#FF9900" d="M300.7,481.9c-4.1,9.6-4.8,19.9-2,30c0.3,0.9,1.7,0.5,1.4-0.4c-2.7-9.7-2.1-19.6,1.8-28.9
							C302.4,481.8,301.1,481,300.7,481.9L300.7,481.9z"/>
					</g>
				</g>
				<g>
					<path fill="#FFFFFF" d="M302.4,471.2c-13.7,11.2-18.4,32-10.8,48"/>
					<g>
						<path fill="#FF9900" d="M301.9,470.6c-14,11.9-18.5,32.2-10.9,48.9c0.4,0.9,1.7,0.1,1.3-0.8c-7.3-16.1-2.7-35.7,10.7-47.1
							C303.7,471.1,302.6,470,301.9,470.6L301.9,470.6z"/>
					</g>
				</g>
				<g>
					<path fill="#FFFFFF" d="M297.8,461.5c-11.1,0.6-17.3,13-19.7,23.9c-2,8.9-2.9,18-2.9,27.1c0,3.3,0.2,6.7,1.9,9.5
						c1.7,2.8,5.4,4.7,8.3,3.3"/>
					<g>
						<path fill="#FF9900" d="M297.8,460.7c-14.1,1.4-19.2,17.3-21.3,29.2c-1.3,7.1-7.4,41.2,9.2,36.1c0.9-0.3,0.5-1.7-0.4-1.4
							c-15,4.6-7.7-33.4-6.2-39.7c2.3-9.7,7.6-21.6,18.8-22.6C298.8,462.1,298.8,460.6,297.8,460.7L297.8,460.7z"/>
					</g>
				</g>
				<g>
					<path fill="#FFFFFF" d="M375.8,477.1c1,16.1-0.9,32.4-5.7,47.8c0.2-1.5,0.3-3,0.5-4.5"/>
					<g>
						<path fill="#FF9900" d="M375,477.1c0.9,16.2-1,32.2-5.7,47.6c0.5,0.1,1,0.1,1.5,0.2c0.2-1.5,0.3-3,0.5-4.5c0.1-1-1.4-1-1.5,0
							c-0.2,1.5-0.3,3-0.5,4.5c-0.1,0.9,1.2,1,1.5,0.2c4.7-15.6,6.6-31.8,5.7-48C376.5,476.1,375,476.1,375,477.1L375,477.1z"/>
					</g>
				</g>
			</g>
		</g>
		<g id="t-8_4_">
			<g>
				<g>
					<path d="M261,488.3c-20.9-2.2-42-4.6-61.7-12.2c-16.5-6.4-31.8-16.1-45-28c-28.6-25.7-46.7-61-53.6-98.6
						c-4.2-22.8-4.3-46.2-0.3-69c0.3-1.9-2.6-2.7-2.9-0.8c-13.5,76.6,20.1,163.2,93.8,196.4c22,9.9,45.9,12.8,69.7,15.4
						C262.9,491.5,262.9,488.5,261,488.3L261,488.3z"/>
				</g>
			</g>
		</g>
	</g>
</g>
<g id="titles">
	<g>
		<g>
			<path d="M633.2,115.2v-1.8c0-2.3,0.1-5,0.3-8.1s0.5-6.4,0.9-10.2c1.1-9,1.6-15.6,1.6-19.7c0-1.4,0-2.8-0.1-4
				c-0.1-1.3-0.2-2.5-0.3-3.8c0.9-0.7,2.1-1.1,3.5-1.1c2.7,0,4.3,0.8,4.7,2.3c0,0.5,0,1.1,0.1,1.7c0,0.6,0.1,1.3,0.1,2
				c0,2.1-0.1,4.5-0.2,7.2c-0.1,2.7-0.4,5.8-0.6,9.2c-0.4,3.8-0.6,7.1-0.7,10.1c-0.1,2.9-0.2,5.5-0.2,7.7v2.3
				c1.9-0.5,4.5-1.7,7.8-3.4c1.8-0.9,3.3-1.7,4.5-2.3c1.2-0.6,2.3-1.1,3-1.3c0.4,0,1-0.1,1.9-0.2c0.9-0.1,1.6-0.2,2-0.2
				c1.4,0,2.5,0.4,3.1,1.3c0.4,0.7,0.6,1.2,0.6,1.6c0,0.5-0.2,1-0.6,1.4l-12.5,6.8c-2.4,1.3-4.7,2.5-6.8,3.4c-2.1,1-4.1,1.8-5.9,2.4
				c-0.4,0.2-0.9,0.2-1.3,0.2c-1,0-1.9-0.5-2.8-1.5L633.2,115.2z"/>
			<path d="M669.4,101.8c0-2,0.3-4,1-6.1c0.7-2,1.7-3.9,3-5.5s3-3,5-4c2-1,4.3-1.5,7-1.5c1.9,0,3.5,0.2,4.9,0.7
				c1.4,0.4,2.5,1,3.5,1.7c0.9,0.7,1.6,1.5,2.1,2.4c0.5,0.9,0.7,1.8,0.7,2.8c0,1.3-0.3,2.5-0.9,3.6c-0.6,1.2-1.5,2.2-2.6,3.1
				c-1.1,0.9-2.6,1.7-4.2,2.2c-1.7,0.6-3.6,0.9-5.7,0.9c-0.9,0.1-1.8,0-2.5-0.1c-0.7-0.1-1.5-0.3-2.5-0.5c-0.1,0.3-0.1,0.5-0.1,0.7
				c0,0.2,0,0.3,0,0.5c0.1,2,0.5,3.6,1.3,4.7s1.6,2,2.6,2.6c0.9,0.6,1.8,0.9,2.7,1.1c0.9,0.2,1.4,0.2,1.7,0.2c2.2,0,4-0.4,5.5-1.1
				c1.5-0.8,3.1-1.6,4.9-2.5c0.4,0.1,0.8,0.2,1.2,0.4c0.4,0.1,0.8,0.4,1.2,0.8c0.1,0.3,0.1,0.6,0.2,0.8c0.1,0.2,0.1,0.5,0.1,0.9
				c-0.1,0.8-0.3,1.4-0.8,1.9c-0.5,0.5-1,1-1.6,1.3c-1.9,1.2-3.6,2-5.2,2.3c-1.6,0.4-3.7,0.5-6.3,0.5c-1.1,0-2.6-0.2-4.2-0.6
				c-1.7-0.4-3.1-0.8-4.2-1.2c-1.7-1-3-2-4-2.9c-1-1-1.7-2-2.2-3.1s-0.9-2.2-1.1-3.4C669.6,104.3,669.4,103.1,669.4,101.8z
				 M678.7,97.4c0.3,0.1,0.7,0.1,1.3,0.1c0.6,0,1.1,0,1.4,0c2.4,0,4.3-0.5,5.6-1.4c1.3-0.9,2-2,2-3.4c0-0.8-0.3-1.5-0.9-2.1
				c-0.6-0.7-1.4-1-2.4-1c-0.7,0-1.4,0.1-2.1,0.2c-0.7,0.1-1.2,0.4-1.6,0.8c-0.3,0.3-0.6,0.5-1,0.8c-0.4,0.3-0.7,0.7-1,1.1
				c-0.3,0.5-0.6,1.1-0.9,1.8S678.8,96.2,678.7,97.4z"/>
			<path d="M702.4,85.4c0.3-0.3,0.6-0.6,0.9-0.9c0.3-0.3,0.7-0.4,1.3-0.4c1.3,0.1,2.6,0.4,3.8,0.8c1.2,0.4,2.3,1.3,3.3,2.5
				c0.8,1.1,1.4,2,1.9,2.7c0.5,0.7,1,1.4,1.4,2c0.5,0.6,0.9,1.2,1.4,1.8c0.5,0.5,1.1,1.1,1.8,1.8c0.3-0.4,0.8-1.1,1.6-1.9
				c0.7-0.8,1.6-1.7,2.4-2.5c0.9-0.8,1.6-1.6,2.4-2.2c0.7-0.7,1.2-1,1.4-1.1c0.9-0.8,1.8-1.6,2.8-2.4c1-0.8,2.3-1.1,3.8-1.1
				c1.4,0,2.6,0.2,3.8,0.6c1.2,0.4,1.8,1.1,1.8,2.1c0,0.3-0.1,0.7-0.2,1c-1.3,1.3-2.6,2.4-4.1,3.6c-1.4,1.1-2.7,2.1-4,2.9
				c-0.4,0.5-0.9,1.1-1.6,1.7c-0.7,0.7-1.4,1.3-2.1,2c-0.7,0.7-1.3,1.3-1.9,1.8s-0.8,1-0.8,1.2c0,0.2,0.3,0.5,1,1.1
				c0.7,0.6,1.4,1.3,2.3,2c0.9,0.7,1.7,1.5,2.5,2.2c0.8,0.7,1.3,1.3,1.5,1.6c0.8,0.9,1.6,1.7,2.5,2.6c0.9,0.8,1.3,1.8,1.3,2.8
				c0,0.4-0.2,0.8-0.7,1.2c-0.5,0.4-1,0.7-1.6,1c-0.4,0-0.8,0-1.1,0.1c-0.3,0.1-0.7,0.1-1,0.1c-0.4,0-0.7,0-1.1-0.1
				c-0.4-0.1-0.8-0.2-1.3-0.4c-0.4-0.3-1.1-0.9-1.9-1.8c-0.9-0.8-1.7-1.7-2.6-2.6c-0.9-0.9-1.7-1.7-2.6-2.5
				c-0.8-0.8-1.4-1.2-1.7-1.3c-0.6,0.7-1.3,1.4-1.9,2.2s-1.3,1.6-1.9,2.5c-0.6,0.8-1.2,1.6-1.7,2.4c-0.5,0.8-0.9,1.4-1.2,2
				c-0.4,0.9-1.1,1.9-1.9,2.9c-0.8,1-1.9,1.5-3.2,1.5c-0.8,0-1.5-0.2-2.2-0.6c-1.1-0.7-1.8-1.4-2.1-2c-0.3-0.7-0.6-1.4-0.7-2.3
				c0-0.1,0-0.2-0.1-0.2c0-0.1-0.1-0.1-0.1-0.2c0.8-1.6,1.8-3,3-4.4c1.2-1.3,2.4-2.8,3.5-4.4c0.6-0.8,1.3-1.6,2.2-2.4
				c0.9-0.8,1.4-1.7,1.4-2.7c-0.8-1.2-1.5-2.2-2.1-3.1c-0.6-0.9-1.2-1.7-1.8-2.5c-0.6-0.8-1.2-1.5-1.8-2.3c-0.6-0.8-1.3-1.7-2-2.7
				c-0.5-0.7-1.1-1.3-1.9-1.9c-0.8-0.5-1.2-1.2-1.3-2L702.4,85.4z"/>
		</g>
	</g>
</g>
</svg>
